<svg width="170" height="58" viewBox="0 0 170 58" fill="none" xmlns="http://www.w3.org/2000/svg">
<rect width="170" height="58" rx="8" fill="#1C1C1C"/>
<g clip-path="url(#clip0_5347_650)">
<path d="M37.5684 15.014C37.5089 14.9475 35.3651 15.0403 33.4996 17.065C31.6341 19.088 31.9211 21.4085 31.9631 21.468C32.0051 21.5275 34.6231 21.6203 36.2944 19.2665C37.9656 16.9128 37.6279 15.0823 37.5684 15.014ZM43.3679 35.5468C43.2839 35.3788 39.2991 33.3873 39.6701 29.5583C40.0411 25.7293 42.6014 24.6775 42.6416 24.5638C42.6819 24.45 41.5969 23.1813 40.4471 22.539C39.6028 22.0866 38.6686 21.8272 37.7119 21.7795C37.5229 21.7743 36.8666 21.6133 35.5174 21.9825C34.6284 22.2258 32.6246 23.0133 32.0734 23.0448C31.5204 23.0763 29.8754 22.1313 28.1061 21.881C26.9739 21.6623 25.7734 22.1103 24.9141 22.455C24.0566 22.798 22.4256 23.7745 21.2846 26.3698C20.1436 28.9633 20.7404 33.0723 21.1674 34.3498C21.5944 35.6273 22.2611 37.7168 23.3951 39.2428C24.4031 40.9648 25.7401 42.16 26.2984 42.566C26.8566 42.972 28.4316 43.2415 29.5236 42.6833C30.4021 42.1443 31.9876 41.8345 32.6141 41.8573C33.2389 41.88 34.4709 42.1268 35.7326 42.8005C36.7319 43.1453 37.6769 43.0018 38.6236 42.6168C39.5704 42.23 40.9406 40.7635 42.5401 37.7903C43.1468 36.4078 43.4227 35.6599 43.3679 35.5468Z" fill="white"/>
<path d="M37.5684 15.014C37.5089 14.9475 35.3651 15.0403 33.4996 17.065C31.6341 19.088 31.9211 21.4085 31.9631 21.468C32.0051 21.5275 34.6231 21.6203 36.2944 19.2665C37.9656 16.9128 37.6279 15.0823 37.5684 15.014ZM43.3679 35.5468C43.2839 35.3788 39.2991 33.3873 39.6701 29.5583C40.0411 25.7293 42.6014 24.6775 42.6416 24.5638C42.6819 24.45 41.5969 23.1813 40.4471 22.539C39.6028 22.0866 38.6686 21.8272 37.7119 21.7795C37.5229 21.7743 36.8666 21.6133 35.5174 21.9825C34.6284 22.2258 32.6246 23.0133 32.0734 23.0448C31.5204 23.0763 29.8754 22.1313 28.1061 21.881C26.9739 21.6623 25.7734 22.1103 24.9141 22.455C24.0566 22.798 22.4256 23.7745 21.2846 26.3698C20.1436 28.9633 20.7404 33.0723 21.1674 34.3498C21.5944 35.6273 22.2611 37.7168 23.3951 39.2428C24.4031 40.9648 25.7401 42.16 26.2984 42.566C26.8566 42.972 28.4316 43.2415 29.5236 42.6833C30.4021 42.1443 31.9876 41.8345 32.6141 41.8573C33.2389 41.88 34.4709 42.1268 35.7326 42.8005C36.7319 43.1453 37.6769 43.0018 38.6236 42.6168C39.5704 42.23 40.9406 40.7635 42.5401 37.7903C43.1468 36.4078 43.4227 35.6599 43.3679 35.5468Z" fill="white"/>
</g>
<path d="M54.5272 21.842H50.3932L49.6002 24H48.6382L51.9532 15.03H52.9802L56.2822 24H55.3202L54.5272 21.842ZM54.2542 21.088L52.4602 16.174L50.6662 21.088H54.2542ZM60.2646 23.116L62.6566 16.902H63.6186L60.7716 24H59.7446L56.8976 16.902H57.8726L60.2646 23.116ZM64.436 20.438C64.436 19.71 64.579 19.073 64.865 18.527C65.1597 17.9723 65.5627 17.5477 66.074 17.253C66.594 16.9497 67.179 16.798 67.829 16.798C68.505 16.798 69.0857 16.954 69.571 17.266C70.065 17.578 70.4203 17.9767 70.637 18.462V16.902H71.547V24H70.637V22.427C70.4117 22.9123 70.052 23.3153 69.558 23.636C69.0727 23.948 68.492 24.104 67.816 24.104C67.1747 24.104 66.594 23.9523 66.074 23.649C65.5627 23.3457 65.1597 22.9167 64.865 22.362C64.579 21.8073 64.436 21.166 64.436 20.438ZM70.637 20.451C70.637 19.879 70.52 19.3763 70.286 18.943C70.052 18.5097 69.7313 18.176 69.324 17.942C68.9253 17.708 68.4833 17.591 67.998 17.591C67.4953 17.591 67.0447 17.7037 66.646 17.929C66.2473 18.1543 65.931 18.4837 65.697 18.917C65.4717 19.3417 65.359 19.8487 65.359 20.438C65.359 21.0187 65.4717 21.53 65.697 21.972C65.931 22.4053 66.2473 22.739 66.646 22.973C67.0447 23.1983 67.4953 23.311 67.998 23.311C68.4833 23.311 68.9253 23.194 69.324 22.96C69.7313 22.726 70.052 22.3923 70.286 21.959C70.52 21.5257 70.637 21.023 70.637 20.451ZM74.0795 15.563C73.8975 15.563 73.7415 15.498 73.6115 15.368C73.4815 15.238 73.4165 15.0777 73.4165 14.887C73.4165 14.6963 73.4815 14.5403 73.6115 14.419C73.7415 14.289 73.8975 14.224 74.0795 14.224C74.2615 14.224 74.4175 14.289 74.5475 14.419C74.6775 14.5403 74.7425 14.6963 74.7425 14.887C74.7425 15.0777 74.6775 15.238 74.5475 15.368C74.4175 15.498 74.2615 15.563 74.0795 15.563ZM74.5345 16.902V24H73.6245V16.902H74.5345ZM77.5052 14.38V24H76.5952V14.38H77.5052ZM79.1499 20.438C79.1499 19.71 79.2929 19.073 79.5789 18.527C79.8735 17.9723 80.2765 17.5477 80.7879 17.253C81.3079 16.9497 81.8929 16.798 82.5429 16.798C83.2189 16.798 83.7995 16.954 84.2849 17.266C84.7789 17.578 85.1342 17.9767 85.3509 18.462V16.902H86.2609V24H85.3509V22.427C85.1255 22.9123 84.7659 23.3153 84.2719 23.636C83.7865 23.948 83.2059 24.104 82.5299 24.104C81.8885 24.104 81.3079 23.9523 80.7879 23.649C80.2765 23.3457 79.8735 22.9167 79.5789 22.362C79.2929 21.8073 79.1499 21.166 79.1499 20.438ZM85.3509 20.451C85.3509 19.879 85.2339 19.3763 84.9999 18.943C84.7659 18.5097 84.4452 18.176 84.0379 17.942C83.6392 17.708 83.1972 17.591 82.7119 17.591C82.2092 17.591 81.7585 17.7037 81.3599 17.929C80.9612 18.1543 80.6449 18.4837 80.4109 18.917C80.1855 19.3417 80.0729 19.8487 80.0729 20.438C80.0729 21.0187 80.1855 21.53 80.4109 21.972C80.6449 22.4053 80.9612 22.739 81.3599 22.973C81.7585 23.1983 82.2092 23.311 82.7119 23.311C83.1972 23.311 83.6392 23.194 84.0379 22.96C84.4452 22.726 84.7659 22.3923 84.9999 21.959C85.2339 21.5257 85.3509 21.023 85.3509 20.451ZM89.2353 18.475C89.4693 17.981 89.829 17.578 90.3143 17.266C90.8083 16.954 91.389 16.798 92.0563 16.798C92.7063 16.798 93.287 16.9497 93.7983 17.253C94.3097 17.5477 94.7083 17.9723 94.9943 18.527C95.289 19.073 95.4363 19.71 95.4363 20.438C95.4363 21.166 95.289 21.8073 94.9943 22.362C94.7083 22.9167 94.3053 23.3457 93.7853 23.649C93.274 23.9523 92.6977 24.104 92.0563 24.104C91.3803 24.104 90.7953 23.9523 90.3013 23.649C89.816 23.337 89.4607 22.934 89.2353 22.44V24H88.3383V14.38H89.2353V18.475ZM94.5133 20.438C94.5133 19.8487 94.3963 19.3417 94.1623 18.917C93.937 18.4837 93.625 18.1543 93.2263 17.929C92.8277 17.7037 92.377 17.591 91.8743 17.591C91.389 17.591 90.9427 17.708 90.5353 17.942C90.1367 18.176 89.8203 18.5097 89.5863 18.943C89.3523 19.3763 89.2353 19.879 89.2353 20.451C89.2353 21.023 89.3523 21.5257 89.5863 21.959C89.8203 22.3923 90.1367 22.726 90.5353 22.96C90.9427 23.194 91.389 23.311 91.8743 23.311C92.377 23.311 92.8277 23.1983 93.2263 22.973C93.625 22.739 93.937 22.4053 94.1623 21.972C94.3963 21.53 94.5133 21.0187 94.5133 20.438ZM98.0208 14.38V24H97.1108V14.38H98.0208ZM106.504 20.087C106.504 20.399 106.495 20.6373 106.478 20.802H100.589C100.615 21.3393 100.745 21.7987 100.979 22.18C101.213 22.5613 101.52 22.8517 101.902 23.051C102.283 23.2417 102.699 23.337 103.15 23.337C103.739 23.337 104.233 23.194 104.632 22.908C105.039 22.622 105.308 22.2363 105.438 21.751H106.4C106.226 22.4443 105.854 23.012 105.282 23.454C104.718 23.8873 104.008 24.104 103.15 24.104C102.482 24.104 101.884 23.9567 101.356 23.662C100.827 23.3587 100.411 22.934 100.108 22.388C99.8128 21.8333 99.6655 21.1877 99.6655 20.451C99.6655 19.7143 99.8128 19.0687 100.108 18.514C100.402 17.9593 100.814 17.5347 101.343 17.24C101.871 16.9453 102.474 16.798 103.15 16.798C103.826 16.798 104.415 16.9453 104.918 17.24C105.429 17.5347 105.819 17.9333 106.088 18.436C106.365 18.93 106.504 19.4803 106.504 20.087ZM105.581 20.061C105.589 19.5323 105.481 19.0817 105.256 18.709C105.039 18.3363 104.74 18.0547 104.359 17.864C103.977 17.6733 103.561 17.578 103.111 17.578C102.435 17.578 101.858 17.7947 101.382 18.228C100.905 18.6613 100.641 19.2723 100.589 20.061H105.581ZM114.843 24.104C114.175 24.104 113.573 23.9567 113.036 23.662C112.507 23.3587 112.087 22.934 111.775 22.388C111.471 21.8333 111.32 21.1877 111.32 20.451C111.32 19.7143 111.476 19.073 111.788 18.527C112.1 17.9723 112.524 17.5477 113.062 17.253C113.599 16.9497 114.201 16.798 114.869 16.798C115.536 16.798 116.138 16.9497 116.676 17.253C117.222 17.5477 117.646 17.9723 117.95 18.527C118.262 19.073 118.418 19.7143 118.418 20.451C118.418 21.179 118.262 21.8203 117.95 22.375C117.638 22.9297 117.209 23.3587 116.663 23.662C116.117 23.9567 115.51 24.104 114.843 24.104ZM114.843 23.311C115.311 23.311 115.744 23.207 116.143 22.999C116.541 22.7823 116.862 22.4617 117.105 22.037C117.356 21.6037 117.482 21.075 117.482 20.451C117.482 19.827 117.36 19.3027 117.118 18.878C116.875 18.4447 116.554 18.124 116.156 17.916C115.757 17.6993 115.324 17.591 114.856 17.591C114.388 17.591 113.954 17.6993 113.556 17.916C113.157 18.124 112.836 18.4447 112.594 18.878C112.36 19.3027 112.243 19.827 112.243 20.451C112.243 21.075 112.36 21.6037 112.594 22.037C112.836 22.4617 113.153 22.7823 113.543 22.999C113.941 23.207 114.375 23.311 114.843 23.311ZM123.405 16.772C124.254 16.772 124.947 17.0363 125.485 17.565C126.022 18.085 126.291 18.8433 126.291 19.84V24H125.394V19.944C125.394 19.1727 125.199 18.5833 124.809 18.176C124.427 17.7687 123.903 17.565 123.236 17.565C122.551 17.565 122.005 17.7817 121.598 18.215C121.19 18.6483 120.987 19.2853 120.987 20.126V24H120.077V16.902H120.987V18.111C121.212 17.6777 121.537 17.3483 121.962 17.123C122.386 16.889 122.867 16.772 123.405 16.772ZM133.054 17.669V22.076C133.054 22.5093 133.136 22.8083 133.301 22.973C133.465 23.1377 133.756 23.22 134.172 23.22H135.004V24H134.029C133.387 24 132.911 23.8527 132.599 23.558C132.287 23.2547 132.131 22.7607 132.131 22.076V17.669H131.143V16.902H132.131V15.121H133.054V16.902H135.004V17.669H133.054ZM139.884 16.772C140.422 16.772 140.903 16.8847 141.327 17.11C141.761 17.3353 142.099 17.682 142.341 18.15C142.593 18.6093 142.718 19.1727 142.718 19.84V24H141.821V19.944C141.821 19.1727 141.626 18.5833 141.236 18.176C140.855 17.7687 140.331 17.565 139.663 17.565C138.979 17.565 138.433 17.7817 138.025 18.215C137.618 18.6483 137.414 19.2853 137.414 20.126V24H136.504V14.38H137.414V18.111C137.64 17.6863 137.969 17.357 138.402 17.123C138.844 16.889 139.338 16.772 139.884 16.772ZM151.153 20.087C151.153 20.399 151.144 20.6373 151.127 20.802H145.238C145.264 21.3393 145.394 21.7987 145.628 22.18C145.862 22.5613 146.17 22.8517 146.551 23.051C146.932 23.2417 147.348 23.337 147.799 23.337C148.388 23.337 148.882 23.194 149.281 22.908C149.688 22.622 149.957 22.2363 150.087 21.751H151.049C150.876 22.4443 150.503 23.012 149.931 23.454C149.368 23.8873 148.657 24.104 147.799 24.104C147.132 24.104 146.534 23.9567 146.005 23.662C145.476 23.3587 145.06 22.934 144.757 22.388C144.462 21.8333 144.315 21.1877 144.315 20.451C144.315 19.7143 144.462 19.0687 144.757 18.514C145.052 17.9593 145.463 17.5347 145.992 17.24C146.521 16.9453 147.123 16.798 147.799 16.798C148.475 16.798 149.064 16.9453 149.567 17.24C150.078 17.5347 150.468 17.9333 150.737 18.436C151.014 18.93 151.153 19.4803 151.153 20.087ZM150.23 20.061C150.239 19.5323 150.13 19.0817 149.905 18.709C149.688 18.3363 149.389 18.0547 149.008 17.864C148.627 17.6733 148.211 17.578 147.76 17.578C147.084 17.578 146.508 17.7947 146.031 18.228C145.554 18.6613 145.29 19.2723 145.238 20.061H150.23Z" fill="white"/>
<path d="M58.1124 43.16H52.2924L51.2924 46H48.9124L53.8924 32.08H56.5324L61.5124 46H59.1124L58.1124 43.16ZM57.4724 41.3L55.2124 34.84L52.9324 41.3H57.4724ZM65.9577 36.6C66.3444 36.0933 66.8711 35.6667 67.5377 35.32C68.2044 34.9733 68.9577 34.8 69.7977 34.8C70.7577 34.8 71.6311 35.04 72.4177 35.52C73.2177 35.9867 73.8444 36.6467 74.2977 37.5C74.7511 38.3533 74.9777 39.3333 74.9777 40.44C74.9777 41.5467 74.7511 42.54 74.2977 43.42C73.8444 44.2867 73.2177 44.9667 72.4177 45.46C71.6311 45.94 70.7577 46.18 69.7977 46.18C68.9577 46.18 68.2111 46.0133 67.5577 45.68C66.9044 45.3333 66.3711 44.9067 65.9577 44.4V51.24H63.6777V34.98H65.9577V36.6ZM72.6577 40.44C72.6577 39.68 72.4977 39.0267 72.1777 38.48C71.8711 37.92 71.4577 37.5 70.9377 37.22C70.4311 36.9267 69.8844 36.78 69.2977 36.78C68.7244 36.78 68.1777 36.9267 67.6577 37.22C67.1511 37.5133 66.7377 37.94 66.4177 38.5C66.1111 39.06 65.9577 39.72 65.9577 40.48C65.9577 41.24 66.1111 41.9067 66.4177 42.48C66.7377 43.04 67.1511 43.4667 67.6577 43.76C68.1777 44.0533 68.7244 44.2 69.2977 44.2C69.8844 44.2 70.4311 44.0533 70.9377 43.76C71.4577 43.4533 71.8711 43.0133 72.1777 42.44C72.4977 41.8667 72.6577 41.2 72.6577 40.44ZM79.5124 36.6C79.8991 36.0933 80.4258 35.6667 81.0924 35.32C81.7591 34.9733 82.5124 34.8 83.3524 34.8C84.3124 34.8 85.1858 35.04 85.9724 35.52C86.7724 35.9867 87.3991 36.6467 87.8524 37.5C88.3058 38.3533 88.5324 39.3333 88.5324 40.44C88.5324 41.5467 88.3058 42.54 87.8524 43.42C87.3991 44.2867 86.7724 44.9667 85.9724 45.46C85.1858 45.94 84.3124 46.18 83.3524 46.18C82.5124 46.18 81.7658 46.0133 81.1124 45.68C80.4591 45.3333 79.9258 44.9067 79.5124 44.4V51.24H77.2324V34.98H79.5124V36.6ZM86.2124 40.44C86.2124 39.68 86.0524 39.0267 85.7324 38.48C85.4258 37.92 85.0124 37.5 84.4924 37.22C83.9858 36.9267 83.4391 36.78 82.8524 36.78C82.2791 36.78 81.7324 36.9267 81.2124 37.22C80.7058 37.5133 80.2924 37.94 79.9724 38.5C79.6658 39.06 79.5124 39.72 79.5124 40.48C79.5124 41.24 79.6658 41.9067 79.9724 42.48C80.2924 43.04 80.7058 43.4667 81.2124 43.76C81.7324 44.0533 82.2791 44.2 82.8524 44.2C83.4391 44.2 83.9858 44.0533 84.4924 43.76C85.0124 43.4533 85.4258 43.0133 85.7324 42.44C86.0524 41.8667 86.2124 41.2 86.2124 40.44ZM100.562 46.14C99.6291 46.14 98.7891 45.98 98.0424 45.66C97.2958 45.3267 96.7091 44.86 96.2824 44.26C95.8558 43.66 95.6424 42.96 95.6424 42.16H98.0824C98.1358 42.76 98.3691 43.2533 98.7824 43.64C99.2091 44.0267 99.8024 44.22 100.562 44.22C101.349 44.22 101.962 44.0333 102.402 43.66C102.842 43.2733 103.062 42.78 103.062 42.18C103.062 41.7133 102.922 41.3333 102.642 41.04C102.376 40.7467 102.036 40.52 101.622 40.36C101.222 40.2 100.662 40.0267 99.9424 39.84C99.0358 39.6 98.2958 39.36 97.7224 39.12C97.1624 38.8667 96.6824 38.48 96.2824 37.96C95.8824 37.44 95.6824 36.7467 95.6824 35.88C95.6824 35.08 95.8824 34.38 96.2824 33.78C96.6824 33.18 97.2424 32.72 97.9624 32.4C98.6824 32.08 99.5158 31.92 100.462 31.92C101.809 31.92 102.909 32.26 103.762 32.94C104.629 33.6067 105.109 34.5267 105.202 35.7H102.682C102.642 35.1933 102.402 34.76 101.962 34.4C101.522 34.04 100.942 33.86 100.222 33.86C99.5691 33.86 99.0358 34.0267 98.6224 34.36C98.2091 34.6933 98.0024 35.1733 98.0024 35.8C98.0024 36.2267 98.1291 36.58 98.3824 36.86C98.6491 37.1267 98.9824 37.34 99.3824 37.5C99.7824 37.66 100.329 37.8333 101.022 38.02C101.942 38.2733 102.689 38.5267 103.262 38.78C103.849 39.0333 104.342 39.4267 104.742 39.96C105.156 40.48 105.362 41.18 105.362 42.06C105.362 42.7667 105.169 43.4333 104.782 44.06C104.409 44.6867 103.856 45.1933 103.122 45.58C102.402 45.9533 101.549 46.14 100.562 46.14ZM110.713 36.84V42.94C110.713 43.3533 110.806 43.6533 110.993 43.84C111.193 44.0133 111.526 44.1 111.993 44.1H113.393V46H111.593C110.566 46 109.779 45.76 109.233 45.28C108.686 44.8 108.413 44.02 108.413 42.94V36.84H107.113V34.98H108.413V32.24H110.713V34.98H113.393V36.84H110.713ZM120.274 46.18C119.234 46.18 118.294 45.9467 117.454 45.48C116.614 45 115.954 44.3333 115.474 43.48C114.994 42.6133 114.754 41.6133 114.754 40.48C114.754 39.36 115.001 38.3667 115.494 37.5C115.987 36.6333 116.661 35.9667 117.514 35.5C118.367 35.0333 119.321 34.8 120.374 34.8C121.427 34.8 122.381 35.0333 123.234 35.5C124.087 35.9667 124.761 36.6333 125.254 37.5C125.747 38.3667 125.994 39.36 125.994 40.48C125.994 41.6 125.741 42.5933 125.234 43.46C124.727 44.3267 124.034 45 123.154 45.48C122.287 45.9467 121.327 46.18 120.274 46.18ZM120.274 44.2C120.861 44.2 121.407 44.06 121.914 43.78C122.434 43.5 122.854 43.08 123.174 42.52C123.494 41.96 123.654 41.28 123.654 40.48C123.654 39.68 123.501 39.0067 123.194 38.46C122.887 37.9 122.481 37.48 121.974 37.2C121.467 36.92 120.921 36.78 120.334 36.78C119.747 36.78 119.201 36.92 118.694 37.2C118.201 37.48 117.807 37.9 117.514 38.46C117.221 39.0067 117.074 39.68 117.074 40.48C117.074 41.6667 117.374 42.5867 117.974 43.24C118.587 43.88 119.354 44.2 120.274 44.2ZM130.528 36.58C130.861 36.02 131.301 35.5867 131.848 35.28C132.408 34.96 133.068 34.8 133.828 34.8V37.16H133.248C132.355 37.16 131.675 37.3867 131.208 37.84C130.755 38.2933 130.528 39.08 130.528 40.2V46H128.248V34.98H130.528V36.58ZM146.024 40.22C146.024 40.6333 145.997 41.0067 145.944 41.34H137.524C137.59 42.22 137.917 42.9267 138.504 43.46C139.09 43.9933 139.81 44.26 140.664 44.26C141.89 44.26 142.757 43.7467 143.264 42.72H145.724C145.39 43.7333 144.784 44.5667 143.904 45.22C143.037 45.86 141.957 46.18 140.664 46.18C139.61 46.18 138.664 45.9467 137.824 45.48C136.997 45 136.344 44.3333 135.864 43.48C135.397 42.6133 135.164 41.6133 135.164 40.48C135.164 39.3467 135.39 38.3533 135.844 37.5C136.31 36.6333 136.957 35.9667 137.784 35.5C138.624 35.0333 139.584 34.8 140.664 34.8C141.704 34.8 142.63 35.0267 143.444 35.48C144.257 35.9333 144.89 36.5733 145.344 37.4C145.797 38.2133 146.024 39.1533 146.024 40.22ZM143.644 39.5C143.63 38.66 143.33 37.9867 142.744 37.48C142.157 36.9733 141.43 36.72 140.564 36.72C139.777 36.72 139.104 36.9733 138.544 37.48C137.984 37.9733 137.65 38.6467 137.544 39.5H143.644Z" fill="white"/>
<defs>
<clipPath id="clip0_5347_650">
<rect width="28" height="28" fill="white" transform="translate(18 15)"/>
</clipPath>
</defs>
</svg>
