<svg width="1440" height="844" viewBox="0 0 1440 844" fill="none" xmlns="http://www.w3.org/2000/svg">
<g clip-path="url(#clip0_6452_31106)">
<rect width="1440" height="844" fill="white"/>
<g opacity="0.5">
<g filter="url(#filter0_f_6452_31106)">
<ellipse cx="1299.76" cy="381.302" rx="179.764" ry="94.8408" fill="#E4DA7E"/>
</g>
<g filter="url(#filter1_f_6452_31106)">
<ellipse cx="1336.95" cy="285.841" rx="176.044" ry="94.8408" fill="#48985C"/>
</g>
</g>
<g opacity="0.5">
<g filter="url(#filter2_f_6452_31106)">
<ellipse cx="-9.23647" cy="965.302" rx="179.764" ry="94.8408" fill="#E4DA7E"/>
</g>
<g filter="url(#filter3_f_6452_31106)">
<ellipse cx="27.9583" cy="869.841" rx="176.044" ry="94.8408" fill="#48985C"/>
</g>
</g>
<path d="M93 167L94.5047 196.929L123.434 189.111L95.4347 199.791L111.809 224.889L93 201.56L74.1909 224.889L90.5653 199.791L62.5662 189.111L91.4953 196.929L93 167Z" fill="black"/>
<path d="M511.5 723L512.37 740.303L529.095 735.783L512.908 741.957L522.374 756.467L511.5 742.98L500.626 756.467L510.092 741.957L493.905 735.783L510.63 740.303L511.5 723Z" fill="black"/>
</g>
<defs>
<filter id="filter0_f_6452_31106" x="1016.85" y="183.306" width="565.836" height="395.991" filterUnits="userSpaceOnUse" color-interpolation-filters="sRGB">
<feFlood flood-opacity="0" result="BackgroundImageFix"/>
<feBlend mode="normal" in="SourceGraphic" in2="BackgroundImageFix" result="shape"/>
<feGaussianBlur stdDeviation="51.5773" result="effect1_foregroundBlur_6452_31106"/>
</filter>
<filter id="filter1_f_6452_31106" x="1057.76" y="87.8454" width="558.399" height="395.991" filterUnits="userSpaceOnUse" color-interpolation-filters="sRGB">
<feFlood flood-opacity="0" result="BackgroundImageFix"/>
<feBlend mode="normal" in="SourceGraphic" in2="BackgroundImageFix" result="shape"/>
<feGaussianBlur stdDeviation="51.5773" result="effect1_foregroundBlur_6452_31106"/>
</filter>
<filter id="filter2_f_6452_31106" x="-292.155" y="767.306" width="565.836" height="395.991" filterUnits="userSpaceOnUse" color-interpolation-filters="sRGB">
<feFlood flood-opacity="0" result="BackgroundImageFix"/>
<feBlend mode="normal" in="SourceGraphic" in2="BackgroundImageFix" result="shape"/>
<feGaussianBlur stdDeviation="51.5773" result="effect1_foregroundBlur_6452_31106"/>
</filter>
<filter id="filter3_f_6452_31106" x="-251.241" y="671.845" width="558.399" height="395.991" filterUnits="userSpaceOnUse" color-interpolation-filters="sRGB">
<feFlood flood-opacity="0" result="BackgroundImageFix"/>
<feBlend mode="normal" in="SourceGraphic" in2="BackgroundImageFix" result="shape"/>
<feGaussianBlur stdDeviation="51.5773" result="effect1_foregroundBlur_6452_31106"/>
</filter>
<clipPath id="clip0_6452_31106">
<rect width="1440" height="844" fill="white"/>
</clipPath>
</defs>
</svg>
