<svg width="30" height="30" viewBox="0 0 30 30" fill="none" xmlns="http://www.w3.org/2000/svg">
<path d="M16.7773 16.0742H13.768C13.768 20.8461 12.7812 22.7586 12.7812 22.7586H17.7641C17.7641 22.7562 16.7773 20.8438 16.7773 16.0742Z" fill="#B7D5E5"/>
<path d="M9.23834 23.0085C9.22193 22.7413 9.26177 22.3897 9.26177 22.3897C9.26177 22.3897 19.8649 21.9491 20.7063 22.3686C20.7063 22.3686 20.8188 22.7577 20.7415 23.0108C20.5563 23.6038 18.1657 24.1358 14.9876 24.1358C11.8094 24.1358 9.27584 23.6296 9.23834 23.0085Z" fill="#2F7889"/>
<path d="M15 23.6152C18.1778 23.6152 20.7539 23.1116 20.7539 22.4902C20.7539 21.8689 18.1778 21.3652 15 21.3652C11.8222 21.3652 9.24609 21.8689 9.24609 22.4902C9.24609 23.1116 11.8222 23.6152 15 23.6152Z" fill="#B7D5E5"/>
<path d="M16.7789 16.0742H13.7695C13.7695 17.6305 13.6641 18.882 13.5234 19.8617L17.1117 20.4008C16.9289 19.3531 16.7789 17.9305 16.7789 16.0742Z" fill="#69A1BA"/>
<path d="M13.0037 21.4355C13.0037 21.4355 12.1318 21.7918 12.3287 22.052C12.6333 22.4598 13.4841 22.7152 15.5419 22.8535C16.988 22.9496 16.4208 23.3527 15.0615 23.4348C14.1076 23.491 9.5349 23.5285 9.26303 22.5746C9.04272 21.7988 12.3521 21.4355 13.0037 21.4355ZM23.2951 24.9629H6.67553C6.44818 24.9629 6.22084 25.0895 6.09428 25.291L4.27084 27.7988C4.10209 28.0285 4.2685 28.352 4.55209 28.352H25.4419C25.7279 28.352 25.8919 28.0285 25.7232 27.7988L23.8763 25.2676C23.7521 25.0895 23.5247 24.9629 23.2951 24.9629Z" fill="#EEEEEE"/>
<path opacity="0.57" d="M8.34531 26.0773H7.20625L7.35859 25.8008H8.49766L8.34531 26.0773ZM10.143 26.0773H9.00391L9.13047 25.8008H10.3187L10.143 26.0773ZM11.8633 26.0773H10.6984L10.8766 25.8008H12.0133L11.8633 26.0773ZM13.5578 26.0773H12.4188L12.5969 25.8008H13.6844L13.5578 26.0773ZM15.2523 26.0773H14.0875L14.1906 25.8008H15.1516L15.2523 26.0773ZM16.9469 26.0773H15.8078L15.6813 25.8008H16.7711L16.9469 26.0773ZM18.7188 26.0773H17.5539L17.3523 25.8008H18.4914L18.7188 26.0773ZM20.4133 26.0773H19.2484L19.0469 25.8008H20.2117L20.4133 26.0773ZM22.7148 26.0773H20.9688L20.7672 25.8008H22.5391L22.7148 26.0773ZM21.8289 26.5344H22.968L22.7664 26.2297H21.6016L21.8289 26.5344ZM19.9586 26.5344H21.0953L20.868 26.2297H19.7289L19.9586 26.5344ZM18.2383 26.5344H19.375L19.1992 26.2297H18.0344L18.2383 26.5344ZM16.3914 26.5344H17.5281L17.3266 26.2297H16.2391L16.3914 26.5344ZM14.7461 26.5344H15.8852L15.7586 26.2297H14.7977L14.7461 26.5344ZM13.1008 26.5344H14.2398L14.3172 26.2297H13.2039L13.1008 26.5344ZM11.3055 26.5344H12.4445L12.5969 26.2297H11.4836L11.3055 26.5344ZM9.28281 26.5344H10.4453L10.6234 26.2297H9.45859L9.28281 26.5344ZM6.95547 26.5344H8.67578L8.85156 26.2297H7.10547L6.95547 26.5344ZM17.8328 26.9891H18.9953L18.7938 26.6844H17.6313L17.8328 26.9891ZM16.0117 26.9891H17.1484L16.9984 26.6844H15.9109L16.0117 26.9891ZM13.8344 26.9891H14.9992L14.9734 26.6844H13.9375L13.8344 26.9891ZM11.7859 26.9891H12.9508L13.0516 26.6844H11.9383L11.7859 26.9891ZM9.63672 26.9891H10.7734L10.9516 26.6844H9.8125L9.63672 26.9891ZM6.72578 26.9891H9.02969L9.20547 26.6844H6.90391L6.72578 26.9891ZM19.7805 26.9891H23.2211L23.0195 26.6844H19.5789L19.7805 26.9891ZM22.3867 27.4437H23.5492L23.3219 27.1414H22.1594L22.3867 27.4437ZM20.2609 27.4437H21.4L21.1727 27.1414H20.0336L20.2609 27.4437ZM11.0781 27.4437H18.8945L18.7188 27.1414H11.2539L11.0781 27.4437ZM8.62422 27.4437H9.78672L9.91328 27.1414H8.8L8.62422 27.4437ZM6.44922 27.4437H7.58594L7.7125 27.1414H6.59922L6.44922 27.4437Z" fill="#69A1BA"/>
<path d="M25.4734 29.0633H4.525C4.31875 29.0633 4.14062 28.8852 4.14062 28.6836V28.1211H25.8625V28.6836C25.8602 28.8852 25.6797 29.0633 25.4734 29.0633Z" fill="#2F7889"/>
<path d="M23.2981 25.1996C23.4411 25.1996 23.6028 25.284 23.6895 25.4059L25.6161 28.0473C25.6278 28.0613 25.6278 28.0777 25.6208 28.0941C25.6114 28.1105 25.5997 28.1176 25.5809 28.1176H4.42156C4.40281 28.1176 4.39109 28.1105 4.38172 28.0941C4.37741 28.0868 4.37555 28.0784 4.37639 28.0699C4.37723 28.0615 4.38074 28.0536 4.3864 28.0473L6.28953 25.4316L6.29422 25.4246L6.2989 25.4176C6.38093 25.284 6.53093 25.1996 6.68093 25.1996H23.2981ZM23.2981 24.9629H6.67859C6.45125 24.9629 6.2239 25.0895 6.09734 25.291L4.19421 27.9066C4.06062 28.0918 4.19187 28.352 4.42156 28.352H25.5833C25.813 28.352 25.9442 28.0918 25.8106 27.9066L23.8841 25.2652C23.7552 25.0895 23.5278 24.9629 23.2981 24.9629Z" fill="#B7D5E5"/>
<path d="M26.5922 18.6711H3.40781C3.19398 18.6711 2.98891 18.5862 2.83771 18.4349C2.68651 18.2837 2.60156 18.0787 2.60156 17.8648V2.16172C2.60156 1.71641 2.9625 1.35547 3.40781 1.35547H26.5898C27.0352 1.35547 27.3961 1.71641 27.3961 2.16172V17.8648C27.3984 18.3102 27.0375 18.6711 26.5922 18.6711Z" fill="#69A1BA"/>
<path d="M26.5922 18.2551H3.40781C3.19398 18.2551 2.98891 18.1701 2.83771 18.0189C2.68651 17.8677 2.60156 17.6627 2.60156 17.4488V1.7457C2.60156 1.30039 2.9625 0.939453 3.40781 0.939453H26.5898C27.0352 0.939453 27.3961 1.30039 27.3961 1.7457V17.4488C27.3964 17.5546 27.3758 17.6594 27.3356 17.7572C27.2953 17.855 27.2361 17.9439 27.1615 18.0188C27.0868 18.0937 26.9981 18.1531 26.9004 18.1937C26.8027 18.2342 26.698 18.2551 26.5922 18.2551Z" fill="#B7D5E5"/>
<path d="M3.57422 2.19922H26.4258V16.993H3.57422V2.19922Z" fill="url(#paint0_radial_5400_73296)"/>
<path d="M3.83984 1.63867H6.4625" stroke="#EEEEEE" stroke-width="0.37675" stroke-miterlimit="10" stroke-linecap="round"/>
<defs>
<radialGradient id="paint0_radial_5400_73296" cx="0" cy="0" r="1" gradientUnits="userSpaceOnUse" gradientTransform="translate(10.8902 -1.21234) scale(14.2905)">
<stop stop-color="#2F7889"/>
<stop offset="1" stop-color="#424242"/>
</radialGradient>
</defs>
</svg>
