<svg width="814" height="510" viewBox="0 0 814 510" fill="none" xmlns="http://www.w3.org/2000/svg">
<g clip-path="url(#clip0_6825_3445)">
<rect width="814" height="510" rx="8" fill="#3D8361"/>
<path d="M381.822 281.216C380.942 281.216 380.11 281.144 379.326 281C378.542 280.84 377.822 280.616 377.166 280.328C376.51 280.024 375.918 279.656 375.39 279.224L376.158 277.448C376.686 277.848 377.238 278.192 377.814 278.48C378.39 278.752 379.006 278.96 379.662 279.104C380.318 279.232 381.038 279.296 381.822 279.296C383.23 279.296 384.262 279.04 384.918 278.528C385.59 278.016 385.926 277.344 385.926 276.512C385.926 276.048 385.822 275.656 385.614 275.336C385.406 275.016 385.07 274.744 384.606 274.52C384.142 274.296 383.534 274.112 382.782 273.968L380.238 273.44C378.734 273.12 377.606 272.592 376.854 271.856C376.118 271.12 375.75 270.136 375.75 268.904C375.75 267.896 376.014 267.016 376.542 266.264C377.086 265.496 377.822 264.904 378.75 264.488C379.694 264.072 380.782 263.864 382.014 263.864C382.782 263.864 383.51 263.944 384.198 264.104C384.886 264.248 385.526 264.48 386.118 264.8C386.71 265.104 387.23 265.48 387.678 265.928L386.934 267.632C386.23 266.992 385.478 266.528 384.678 266.24C383.878 265.936 382.982 265.784 381.99 265.784C381.174 265.784 380.462 265.912 379.854 266.168C379.262 266.424 378.798 266.784 378.462 267.248C378.142 267.696 377.982 268.224 377.982 268.832C377.982 269.568 378.206 270.144 378.654 270.56C379.102 270.976 379.854 271.296 380.91 271.52L383.43 272.024C385.03 272.36 386.214 272.88 386.982 273.584C387.766 274.272 388.158 275.2 388.158 276.368C388.158 277.328 387.902 278.176 387.39 278.912C386.878 279.632 386.142 280.2 385.182 280.616C384.238 281.016 383.118 281.216 381.822 281.216ZM395.794 281.216C394.642 281.216 393.642 280.968 392.794 280.472C391.946 279.976 391.29 279.272 390.826 278.36C390.362 277.448 390.13 276.376 390.13 275.144C390.13 273.912 390.362 272.848 390.826 271.952C391.29 271.04 391.946 270.336 392.794 269.84C393.642 269.344 394.642 269.096 395.794 269.096C396.946 269.096 397.946 269.344 398.794 269.84C399.642 270.336 400.298 271.04 400.762 271.952C401.226 272.848 401.458 273.912 401.458 275.144C401.458 276.376 401.226 277.448 400.762 278.36C400.298 279.272 399.642 279.976 398.794 280.472C397.946 280.968 396.946 281.216 395.794 281.216ZM395.794 279.488C396.85 279.488 397.69 279.12 398.314 278.384C398.938 277.632 399.25 276.552 399.25 275.144C399.25 273.736 398.938 272.664 398.314 271.928C397.69 271.192 396.85 270.824 395.794 270.824C394.754 270.824 393.914 271.192 393.274 271.928C392.65 272.664 392.338 273.736 392.338 275.144C392.338 276.552 392.65 277.632 393.274 278.384C393.914 279.12 394.754 279.488 395.794 279.488ZM404.256 281V269.312H406.392V272.096H406.152C406.408 271.136 406.872 270.416 407.544 269.936C408.216 269.44 409.104 269.152 410.208 269.072L410.952 269L411.12 270.896L409.752 271.016C408.696 271.128 407.88 271.472 407.304 272.048C406.744 272.624 406.464 273.416 406.464 274.424V281H404.256ZM413.022 281V269.312H415.158V272.096H414.918C415.174 271.136 415.638 270.416 416.31 269.936C416.982 269.44 417.87 269.152 418.974 269.072L419.718 269L419.886 270.896L418.518 271.016C417.462 271.128 416.646 271.472 416.07 272.048C415.51 272.624 415.23 273.416 415.23 274.424V281H413.022ZM423.81 285.32L426.042 280.304V281.216L420.93 269.312H423.282L427.338 279.296H426.666L430.794 269.312H433.05L426.09 285.32H423.81ZM435.272 276.44L434.6 264.08H437.312L436.616 276.44H435.272ZM434.624 281V278.336H437.288V281H434.624ZM162.238 317V301.976H156.166V300.08H170.542V301.976H164.47V317H162.238ZM172.4 317V300.08H174.584V307.856H174.272C174.608 306.944 175.152 306.256 175.904 305.792C176.672 305.328 177.544 305.096 178.52 305.096C179.464 305.096 180.24 305.272 180.848 305.624C181.456 305.96 181.912 306.472 182.216 307.16C182.52 307.848 182.672 308.712 182.672 309.752V317H180.488V309.872C180.488 309.184 180.4 308.616 180.224 308.168C180.048 307.72 179.768 307.392 179.384 307.184C179.016 306.976 178.544 306.872 177.968 306.872C177.296 306.872 176.704 307.016 176.192 307.304C175.68 307.592 175.28 308 174.992 308.528C174.72 309.056 174.584 309.672 174.584 310.376V317H172.4ZM191.535 317.216C190.271 317.216 189.183 316.976 188.271 316.496C187.375 316 186.679 315.304 186.183 314.408C185.687 313.496 185.439 312.424 185.439 311.192C185.439 309.976 185.679 308.912 186.159 308C186.655 307.088 187.327 306.376 188.175 305.864C189.039 305.352 190.023 305.096 191.127 305.096C192.199 305.096 193.111 305.328 193.863 305.792C194.631 306.256 195.215 306.92 195.615 307.784C196.031 308.632 196.239 309.656 196.239 310.856V311.648H187.143V310.256H194.799L194.391 310.592C194.391 309.344 194.119 308.384 193.575 307.712C193.031 307.024 192.231 306.68 191.175 306.68C190.407 306.68 189.751 306.864 189.207 307.232C188.663 307.584 188.247 308.088 187.959 308.744C187.671 309.384 187.527 310.128 187.527 310.976V311.12C187.527 312.08 187.679 312.888 187.983 313.544C188.303 314.184 188.759 314.672 189.351 315.008C189.943 315.328 190.671 315.488 191.535 315.488C192.223 315.488 192.887 315.384 193.527 315.176C194.183 314.952 194.799 314.608 195.375 314.144L196.047 315.656C195.519 316.136 194.839 316.52 194.007 316.808C193.191 317.08 192.367 317.216 191.535 317.216ZM208.91 317.216C207.662 317.216 206.726 316.864 206.102 316.16C205.494 315.44 205.19 314.408 205.19 313.064V300.08H207.374V312.896C207.374 313.44 207.446 313.904 207.59 314.288C207.75 314.656 207.974 314.928 208.262 315.104C208.566 315.28 208.942 315.368 209.39 315.368C209.566 315.368 209.742 315.36 209.918 315.344C210.11 315.328 210.286 315.296 210.446 315.248L210.398 317.024C210.142 317.088 209.886 317.136 209.63 317.168C209.39 317.2 209.15 317.216 208.91 317.216ZM212.192 302.504V300.152H214.808V302.504H212.192ZM212.408 317V305.312H214.592V317H212.408ZM218.104 317V305.312H220.24V307.856H219.976C220.312 306.944 220.856 306.256 221.608 305.792C222.376 305.328 223.248 305.096 224.224 305.096C225.168 305.096 225.944 305.264 226.552 305.6C227.16 305.936 227.616 306.456 227.92 307.16C228.224 307.848 228.376 308.712 228.376 309.752V317H226.192V309.872C226.192 309.184 226.104 308.616 225.928 308.168C225.752 307.72 225.472 307.392 225.088 307.184C224.72 306.976 224.248 306.872 223.672 306.872C223 306.872 222.408 307.016 221.896 307.304C221.384 307.592 220.984 308 220.696 308.528C220.424 309.056 220.288 309.672 220.288 310.376V317H218.104ZM231.838 317V300.08H234.022V310.472H234.07L239.326 305.312H242.062L235.774 311.48V310.4L242.518 317H239.782L234.07 311.576H234.022V317H231.838ZM250.044 302.504V300.152H252.66V302.504H250.044ZM250.26 317V305.312H252.444V317H250.26ZM259.987 317.216C259.379 317.216 258.779 317.16 258.187 317.048C257.611 316.936 257.075 316.776 256.579 316.568C256.099 316.344 255.675 316.08 255.307 315.776L255.955 314.264C256.339 314.552 256.755 314.8 257.203 315.008C257.651 315.2 258.115 315.344 258.595 315.44C259.075 315.536 259.555 315.584 260.035 315.584C260.915 315.584 261.579 315.424 262.027 315.104C262.475 314.784 262.699 314.36 262.699 313.832C262.699 313.384 262.547 313.04 262.243 312.8C261.955 312.544 261.499 312.352 260.875 312.224L258.643 311.768C257.651 311.544 256.899 311.176 256.387 310.664C255.891 310.136 255.643 309.464 255.643 308.648C255.643 307.928 255.835 307.304 256.219 306.776C256.619 306.232 257.171 305.816 257.875 305.528C258.579 305.24 259.387 305.096 260.299 305.096C260.843 305.096 261.371 305.152 261.883 305.264C262.395 305.376 262.875 305.536 263.323 305.744C263.771 305.952 264.147 306.224 264.451 306.56L263.779 308.048C263.475 307.76 263.131 307.52 262.747 307.328C262.363 307.136 261.963 306.992 261.547 306.896C261.131 306.784 260.715 306.728 260.299 306.728C259.435 306.728 258.779 306.896 258.331 307.232C257.899 307.568 257.683 308.008 257.683 308.552C257.683 308.968 257.811 309.312 258.067 309.584C258.339 309.856 258.763 310.056 259.339 310.184L261.571 310.64C262.611 310.864 263.395 311.224 263.923 311.72C264.451 312.2 264.715 312.856 264.715 313.688C264.715 314.424 264.515 315.056 264.115 315.584C263.731 316.112 263.179 316.52 262.459 316.808C261.755 317.08 260.931 317.216 259.987 317.216ZM279.911 317.216C278.855 317.216 277.951 316.952 277.199 316.424C276.447 315.896 275.943 315.184 275.687 314.288H275.927V317H273.791V300.08H275.975V307.952H275.711C275.967 307.088 276.471 306.4 277.223 305.888C277.975 305.36 278.871 305.096 279.911 305.096C280.951 305.096 281.855 305.344 282.623 305.84C283.407 306.32 284.007 307.016 284.423 307.928C284.855 308.824 285.071 309.896 285.071 311.144C285.071 312.376 284.855 313.456 284.423 314.384C283.991 315.296 283.391 316 282.623 316.496C281.855 316.976 280.951 317.216 279.911 317.216ZM279.407 315.488C280.463 315.488 281.303 315.12 281.927 314.384C282.551 313.632 282.863 312.552 282.863 311.144C282.863 309.736 282.551 308.664 281.927 307.928C281.303 307.192 280.463 306.824 279.407 306.824C278.351 306.824 277.511 307.192 276.887 307.928C276.263 308.664 275.951 309.736 275.951 311.144C275.951 312.552 276.263 313.632 276.887 314.384C277.511 315.12 278.351 315.488 279.407 315.488ZM287.877 317V305.312H290.013V308.096H289.773C290.029 307.136 290.493 306.416 291.165 305.936C291.837 305.44 292.725 305.152 293.829 305.072L294.573 305L294.741 306.896L293.373 307.016C292.317 307.128 291.501 307.472 290.925 308.048C290.365 308.624 290.085 309.416 290.085 310.424V317H287.877ZM301.447 317.216C300.295 317.216 299.295 316.968 298.447 316.472C297.599 315.976 296.943 315.272 296.479 314.36C296.015 313.448 295.783 312.376 295.783 311.144C295.783 309.912 296.015 308.848 296.479 307.952C296.943 307.04 297.599 306.336 298.447 305.84C299.295 305.344 300.295 305.096 301.447 305.096C302.599 305.096 303.599 305.344 304.447 305.84C305.295 306.336 305.951 307.04 306.415 307.952C306.879 308.848 307.111 309.912 307.111 311.144C307.111 312.376 306.879 313.448 306.415 314.36C305.951 315.272 305.295 315.976 304.447 316.472C303.599 316.968 302.599 317.216 301.447 317.216ZM301.447 315.488C302.503 315.488 303.343 315.12 303.967 314.384C304.591 313.632 304.903 312.552 304.903 311.144C304.903 309.736 304.591 308.664 303.967 307.928C303.343 307.192 302.503 306.824 301.447 306.824C300.407 306.824 299.567 307.192 298.927 307.928C298.303 308.664 297.991 309.736 297.991 311.144C297.991 312.552 298.303 313.632 298.927 314.384C299.567 315.12 300.407 315.488 301.447 315.488ZM309.908 317V300.08H312.092V310.472H312.14L317.396 305.312H320.132L313.844 311.48V310.4L320.588 317H317.852L312.14 311.576H312.092V317H309.908ZM327.215 317.216C325.951 317.216 324.863 316.976 323.951 316.496C323.055 316 322.359 315.304 321.863 314.408C321.367 313.496 321.119 312.424 321.119 311.192C321.119 309.976 321.359 308.912 321.839 308C322.335 307.088 323.007 306.376 323.855 305.864C324.719 305.352 325.703 305.096 326.807 305.096C327.879 305.096 328.791 305.328 329.543 305.792C330.311 306.256 330.895 306.92 331.295 307.784C331.711 308.632 331.919 309.656 331.919 310.856V311.648H322.823V310.256H330.479L330.071 310.592C330.071 309.344 329.799 308.384 329.255 307.712C328.711 307.024 327.911 306.68 326.855 306.68C326.087 306.68 325.431 306.864 324.887 307.232C324.343 307.584 323.927 308.088 323.639 308.744C323.351 309.384 323.207 310.128 323.207 310.976V311.12C323.207 312.08 323.359 312.888 323.663 313.544C323.983 314.184 324.439 314.672 325.031 315.008C325.623 315.328 326.351 315.488 327.215 315.488C327.903 315.488 328.567 315.384 329.207 315.176C329.863 314.952 330.479 314.608 331.055 314.144L331.727 315.656C331.199 316.136 330.519 316.52 329.687 316.808C328.871 317.08 328.047 317.216 327.215 317.216ZM334.635 317V305.312H336.771V307.856H336.507C336.843 306.944 337.387 306.256 338.139 305.792C338.907 305.328 339.779 305.096 340.755 305.096C341.699 305.096 342.475 305.264 343.083 305.6C343.691 305.936 344.147 306.456 344.451 307.16C344.755 307.848 344.907 308.712 344.907 309.752V317H342.723V309.872C342.723 309.184 342.635 308.616 342.459 308.168C342.283 307.72 342.003 307.392 341.619 307.184C341.251 306.976 340.779 306.872 340.203 306.872C339.531 306.872 338.939 307.016 338.427 307.304C337.915 307.592 337.515 308 337.227 308.528C336.955 309.056 336.819 309.672 336.819 310.376V317H334.635ZM349.185 319.856L348.201 319.088C348.521 318.768 348.753 318.464 348.897 318.176C349.057 317.904 349.169 317.632 349.233 317.36C349.313 317.088 349.353 316.808 349.353 316.52L349.833 317H348.081V314.336H350.745V316.184C350.745 316.648 350.697 317.08 350.601 317.48C350.505 317.896 350.345 318.296 350.121 318.68C349.897 319.08 349.585 319.472 349.185 319.856ZM365.053 317.216C363.629 317.216 362.565 316.848 361.861 316.112C361.157 315.36 360.805 314.288 360.805 312.896V306.992H358.525V305.312H360.805V301.76H362.989V305.312H366.661V306.992H362.989V312.704C362.989 313.584 363.173 314.248 363.541 314.696C363.909 315.144 364.517 315.368 365.365 315.368C365.621 315.368 365.869 315.344 366.109 315.296C366.365 315.232 366.605 315.168 366.829 315.104L367.189 316.736C366.965 316.88 366.645 316.992 366.229 317.072C365.829 317.168 365.437 317.216 365.053 317.216ZM368.807 317V305.312H370.943V308.096H370.703C370.959 307.136 371.423 306.416 372.095 305.936C372.767 305.44 373.655 305.152 374.759 305.072L375.503 305L375.671 306.896L374.303 307.016C373.247 307.128 372.431 307.472 371.855 308.048C371.295 308.624 371.015 309.416 371.015 310.424V317H368.807ZM379.595 321.32L381.827 316.304V317.216L376.715 305.312H379.067L383.123 315.296H382.451L386.579 305.312H388.835L381.875 321.32H379.595ZM401.78 317.216C400.356 317.216 399.292 316.848 398.588 316.112C397.884 315.36 397.532 314.288 397.532 312.896V306.992H395.252V305.312H397.532V301.76H399.716V305.312H403.388V306.992H399.716V312.704C399.716 313.584 399.9 314.248 400.268 314.696C400.636 315.144 401.244 315.368 402.092 315.368C402.348 315.368 402.596 315.344 402.836 315.296C403.092 315.232 403.332 315.168 403.556 315.104L403.916 316.736C403.692 316.88 403.372 316.992 402.956 317.072C402.556 317.168 402.164 317.216 401.78 317.216ZM410.384 317.216C409.232 317.216 408.232 316.968 407.384 316.472C406.536 315.976 405.88 315.272 405.416 314.36C404.952 313.448 404.72 312.376 404.72 311.144C404.72 309.912 404.952 308.848 405.416 307.952C405.88 307.04 406.536 306.336 407.384 305.84C408.232 305.344 409.232 305.096 410.384 305.096C411.536 305.096 412.536 305.344 413.384 305.84C414.232 306.336 414.888 307.04 415.352 307.952C415.816 308.848 416.048 309.912 416.048 311.144C416.048 312.376 415.816 313.448 415.352 314.36C414.888 315.272 414.232 315.976 413.384 316.472C412.536 316.968 411.536 317.216 410.384 317.216ZM410.384 315.488C411.44 315.488 412.28 315.12 412.904 314.384C413.528 313.632 413.84 312.552 413.84 311.144C413.84 309.736 413.528 308.664 412.904 307.928C412.28 307.192 411.44 306.824 410.384 306.824C409.344 306.824 408.504 307.192 407.864 307.928C407.24 308.664 406.928 309.736 406.928 311.144C406.928 312.552 407.24 313.632 407.864 314.384C408.504 315.12 409.344 315.488 410.384 315.488ZM425.08 317V305.312H427.216V308.096H426.976C427.232 307.136 427.696 306.416 428.368 305.936C429.04 305.44 429.928 305.152 431.032 305.072L431.776 305L431.944 306.896L430.576 307.016C429.52 307.128 428.704 307.472 428.128 308.048C427.568 308.624 427.288 309.416 427.288 310.424V317H425.08ZM439.082 317.216C437.818 317.216 436.73 316.976 435.818 316.496C434.922 316 434.226 315.304 433.73 314.408C433.234 313.496 432.986 312.424 432.986 311.192C432.986 309.976 433.226 308.912 433.706 308C434.202 307.088 434.874 306.376 435.722 305.864C436.586 305.352 437.57 305.096 438.674 305.096C439.746 305.096 440.658 305.328 441.41 305.792C442.178 306.256 442.762 306.92 443.162 307.784C443.578 308.632 443.786 309.656 443.786 310.856V311.648H434.69V310.256H442.346L441.938 310.592C441.938 309.344 441.666 308.384 441.122 307.712C440.578 307.024 439.778 306.68 438.722 306.68C437.954 306.68 437.298 306.864 436.754 307.232C436.21 307.584 435.794 308.088 435.506 308.744C435.218 309.384 435.074 310.128 435.074 310.976V311.12C435.074 312.08 435.226 312.888 435.53 313.544C435.85 314.184 436.306 314.672 436.898 315.008C437.49 315.328 438.218 315.488 439.082 315.488C439.77 315.488 440.434 315.384 441.074 315.176C441.73 314.952 442.346 314.608 442.922 314.144L443.594 315.656C443.066 316.136 442.386 316.52 441.554 316.808C440.738 317.08 439.914 317.216 439.082 317.216ZM447.151 317V306.992H444.871V305.312H447.751L447.151 305.888V305C447.151 303.416 447.551 302.224 448.351 301.424C449.151 300.608 450.383 300.152 452.047 300.056L453.031 299.984L453.199 301.664L452.095 301.736C451.439 301.768 450.911 301.904 450.511 302.144C450.111 302.368 449.815 302.696 449.623 303.128C449.431 303.544 449.335 304.072 449.335 304.712V305.672L449.023 305.312H452.647V306.992H449.335V317H447.151ZM454.635 317V305.312H456.771V308.096H456.531C456.787 307.136 457.251 306.416 457.923 305.936C458.595 305.44 459.483 305.152 460.587 305.072L461.331 305L461.499 306.896L460.131 307.016C459.075 307.128 458.259 307.472 457.683 308.048C457.123 308.624 456.843 309.416 456.843 310.424V317H454.635ZM468.636 317.216C467.372 317.216 466.284 316.976 465.372 316.496C464.476 316 463.78 315.304 463.284 314.408C462.788 313.496 462.54 312.424 462.54 311.192C462.54 309.976 462.78 308.912 463.26 308C463.756 307.088 464.428 306.376 465.276 305.864C466.14 305.352 467.124 305.096 468.228 305.096C469.3 305.096 470.212 305.328 470.964 305.792C471.732 306.256 472.316 306.92 472.716 307.784C473.132 308.632 473.34 309.656 473.34 310.856V311.648H464.244V310.256H471.9L471.492 310.592C471.492 309.344 471.22 308.384 470.676 307.712C470.132 307.024 469.332 306.68 468.276 306.68C467.508 306.68 466.852 306.864 466.308 307.232C465.764 307.584 465.348 308.088 465.06 308.744C464.772 309.384 464.628 310.128 464.628 310.976V311.12C464.628 312.08 464.78 312.888 465.084 313.544C465.404 314.184 465.86 314.672 466.452 315.008C467.044 315.328 467.772 315.488 468.636 315.488C469.324 315.488 469.988 315.384 470.628 315.176C471.284 314.952 471.9 314.608 472.476 314.144L473.148 315.656C472.62 316.136 471.94 316.52 471.108 316.808C470.292 317.08 469.468 317.216 468.636 317.216ZM480.089 317.216C479.481 317.216 478.881 317.16 478.289 317.048C477.713 316.936 477.177 316.776 476.681 316.568C476.201 316.344 475.777 316.08 475.409 315.776L476.057 314.264C476.441 314.552 476.857 314.8 477.305 315.008C477.753 315.2 478.217 315.344 478.697 315.44C479.177 315.536 479.657 315.584 480.137 315.584C481.017 315.584 481.681 315.424 482.129 315.104C482.577 314.784 482.801 314.36 482.801 313.832C482.801 313.384 482.649 313.04 482.345 312.8C482.057 312.544 481.601 312.352 480.977 312.224L478.745 311.768C477.753 311.544 477.001 311.176 476.489 310.664C475.993 310.136 475.745 309.464 475.745 308.648C475.745 307.928 475.937 307.304 476.321 306.776C476.721 306.232 477.273 305.816 477.977 305.528C478.681 305.24 479.489 305.096 480.401 305.096C480.945 305.096 481.473 305.152 481.985 305.264C482.497 305.376 482.977 305.536 483.425 305.744C483.873 305.952 484.249 306.224 484.553 306.56L483.881 308.048C483.577 307.76 483.233 307.52 482.849 307.328C482.465 307.136 482.065 306.992 481.649 306.896C481.233 306.784 480.817 306.728 480.401 306.728C479.537 306.728 478.881 306.896 478.433 307.232C478.001 307.568 477.785 308.008 477.785 308.552C477.785 308.968 477.913 309.312 478.169 309.584C478.441 309.856 478.865 310.056 479.441 310.184L481.673 310.64C482.713 310.864 483.497 311.224 484.025 311.72C484.553 312.2 484.817 312.856 484.817 313.688C484.817 314.424 484.617 315.056 484.217 315.584C483.833 316.112 483.281 316.52 482.561 316.808C481.857 317.08 481.033 317.216 480.089 317.216ZM487.658 317V300.08H489.842V307.856H489.53C489.866 306.944 490.41 306.256 491.162 305.792C491.93 305.328 492.802 305.096 493.778 305.096C494.722 305.096 495.498 305.272 496.106 305.624C496.714 305.96 497.17 306.472 497.474 307.16C497.778 307.848 497.93 308.712 497.93 309.752V317H495.746V309.872C495.746 309.184 495.658 308.616 495.482 308.168C495.306 307.72 495.026 307.392 494.642 307.184C494.274 306.976 493.802 306.872 493.226 306.872C492.554 306.872 491.962 307.016 491.45 307.304C490.938 307.592 490.538 308 490.25 308.528C489.978 309.056 489.842 309.672 489.842 310.376V317H487.658ZM512.595 317.216C511.443 317.216 510.443 316.968 509.595 316.472C508.747 315.976 508.091 315.272 507.627 314.36C507.163 313.448 506.931 312.376 506.931 311.144C506.931 309.912 507.163 308.848 507.627 307.952C508.091 307.04 508.747 306.336 509.595 305.84C510.443 305.344 511.443 305.096 512.595 305.096C513.747 305.096 514.747 305.344 515.595 305.84C516.443 306.336 517.099 307.04 517.563 307.952C518.027 308.848 518.259 309.912 518.259 311.144C518.259 312.376 518.027 313.448 517.563 314.36C517.099 315.272 516.443 315.976 515.595 316.472C514.747 316.968 513.747 317.216 512.595 317.216ZM512.595 315.488C513.651 315.488 514.491 315.12 515.115 314.384C515.739 313.632 516.051 312.552 516.051 311.144C516.051 309.736 515.739 308.664 515.115 307.928C514.491 307.192 513.651 306.824 512.595 306.824C511.555 306.824 510.715 307.192 510.075 307.928C509.451 308.664 509.139 309.736 509.139 311.144C509.139 312.552 509.451 313.632 510.075 314.384C510.715 315.12 511.555 315.488 512.595 315.488ZM521.057 317V305.312H523.193V308.096H522.953C523.209 307.136 523.673 306.416 524.345 305.936C525.017 305.44 525.905 305.152 527.009 305.072L527.753 305L527.921 306.896L526.553 307.016C525.497 307.128 524.681 307.472 524.105 308.048C523.545 308.624 523.265 309.416 523.265 310.424V317H521.057ZM541.313 321.536C540.273 321.536 539.305 321.408 538.409 321.152C537.513 320.896 536.713 320.504 536.009 319.976L536.705 318.392C537.185 318.712 537.657 318.976 538.121 319.184C538.601 319.408 539.089 319.568 539.585 319.664C540.097 319.76 540.625 319.808 541.169 319.808C542.305 319.808 543.153 319.512 543.713 318.92C544.289 318.344 544.577 317.496 544.577 316.376V313.784H544.793C544.569 314.68 544.065 315.392 543.281 315.92C542.513 316.448 541.617 316.712 540.593 316.712C539.537 316.712 538.617 316.472 537.833 315.992C537.049 315.496 536.441 314.816 536.009 313.952C535.577 313.072 535.361 312.056 535.361 310.904C535.361 309.736 535.577 308.72 536.009 307.856C536.441 306.976 537.049 306.296 537.833 305.816C538.617 305.336 539.537 305.096 540.593 305.096C541.633 305.096 542.537 305.36 543.305 305.888C544.073 306.416 544.569 307.128 544.793 308.024H544.577V305.312H546.713V316.088C546.713 317.288 546.505 318.296 546.089 319.112C545.689 319.928 545.089 320.536 544.289 320.936C543.489 321.336 542.497 321.536 541.313 321.536ZM541.073 314.984C542.145 314.984 542.993 314.616 543.617 313.88C544.241 313.144 544.553 312.152 544.553 310.904C544.553 309.64 544.241 308.648 543.617 307.928C542.993 307.192 542.145 306.824 541.073 306.824C540.001 306.824 539.145 307.192 538.505 307.928C537.881 308.648 537.569 309.64 537.569 310.904C537.569 312.152 537.881 313.144 538.505 313.88C539.145 314.616 540.001 314.984 541.073 314.984ZM555.181 317.216C554.029 317.216 553.029 316.968 552.181 316.472C551.333 315.976 550.677 315.272 550.213 314.36C549.749 313.448 549.517 312.376 549.517 311.144C549.517 309.912 549.749 308.848 550.213 307.952C550.677 307.04 551.333 306.336 552.181 305.84C553.029 305.344 554.029 305.096 555.181 305.096C556.333 305.096 557.333 305.344 558.181 305.84C559.029 306.336 559.685 307.04 560.149 307.952C560.613 308.848 560.845 309.912 560.845 311.144C560.845 312.376 560.613 313.448 560.149 314.36C559.685 315.272 559.029 315.976 558.181 316.472C557.333 316.968 556.333 317.216 555.181 317.216ZM555.181 315.488C556.237 315.488 557.077 315.12 557.701 314.384C558.325 313.632 558.637 312.552 558.637 311.144C558.637 309.736 558.325 308.664 557.701 307.928C557.077 307.192 556.237 306.824 555.181 306.824C554.141 306.824 553.301 307.192 552.661 307.928C552.037 308.664 551.725 309.736 551.725 311.144C551.725 312.552 552.037 313.632 552.661 314.384C553.301 315.12 554.141 315.488 555.181 315.488ZM574.725 317.216C573.301 317.216 572.237 316.848 571.533 316.112C570.829 315.36 570.477 314.288 570.477 312.896V306.992H568.197V305.312H570.477V301.76H572.661V305.312H576.333V306.992H572.661V312.704C572.661 313.584 572.845 314.248 573.213 314.696C573.581 315.144 574.189 315.368 575.037 315.368C575.293 315.368 575.541 315.344 575.781 315.296C576.037 315.232 576.277 315.168 576.501 315.104L576.861 316.736C576.637 316.88 576.317 316.992 575.901 317.072C575.501 317.168 575.109 317.216 574.725 317.216ZM583.329 317.216C582.177 317.216 581.177 316.968 580.329 316.472C579.481 315.976 578.825 315.272 578.361 314.36C577.897 313.448 577.665 312.376 577.665 311.144C577.665 309.912 577.897 308.848 578.361 307.952C578.825 307.04 579.481 306.336 580.329 305.84C581.177 305.344 582.177 305.096 583.329 305.096C584.481 305.096 585.481 305.344 586.329 305.84C587.177 306.336 587.833 307.04 588.297 307.952C588.761 308.848 588.993 309.912 588.993 311.144C588.993 312.376 588.761 313.448 588.297 314.36C587.833 315.272 587.177 315.976 586.329 316.472C585.481 316.968 584.481 317.216 583.329 317.216ZM583.329 315.488C584.385 315.488 585.225 315.12 585.849 314.384C586.473 313.632 586.785 312.552 586.785 311.144C586.785 309.736 586.473 308.664 585.849 307.928C585.225 307.192 584.385 306.824 583.329 306.824C582.289 306.824 581.449 307.192 580.809 307.928C580.185 308.664 579.873 309.736 579.873 311.144C579.873 312.552 580.185 313.632 580.809 314.384C581.449 315.12 582.289 315.488 583.329 315.488ZM598.025 317V300.08H600.209V307.856H599.897C600.233 306.944 600.777 306.256 601.529 305.792C602.297 305.328 603.169 305.096 604.145 305.096C605.089 305.096 605.865 305.272 606.473 305.624C607.081 305.96 607.537 306.472 607.841 307.16C608.145 307.848 608.297 308.712 608.297 309.752V317H606.113V309.872C606.113 309.184 606.025 308.616 605.849 308.168C605.673 307.72 605.393 307.392 605.009 307.184C604.641 306.976 604.169 306.872 603.593 306.872C602.921 306.872 602.329 307.016 601.817 307.304C601.305 307.592 600.905 308 600.617 308.528C600.345 309.056 600.209 309.672 600.209 310.376V317H598.025ZM616.728 317.216C615.576 317.216 614.576 316.968 613.728 316.472C612.88 315.976 612.224 315.272 611.76 314.36C611.296 313.448 611.064 312.376 611.064 311.144C611.064 309.912 611.296 308.848 611.76 307.952C612.224 307.04 612.88 306.336 613.728 305.84C614.576 305.344 615.576 305.096 616.728 305.096C617.88 305.096 618.88 305.344 619.728 305.84C620.576 306.336 621.232 307.04 621.696 307.952C622.16 308.848 622.392 309.912 622.392 311.144C622.392 312.376 622.16 313.448 621.696 314.36C621.232 315.272 620.576 315.976 619.728 316.472C618.88 316.968 617.88 317.216 616.728 317.216ZM616.728 315.488C617.784 315.488 618.624 315.12 619.248 314.384C619.872 313.632 620.184 312.552 620.184 311.144C620.184 309.736 619.872 308.664 619.248 307.928C618.624 307.192 617.784 306.824 616.728 306.824C615.688 306.824 614.848 307.192 614.208 307.928C613.584 308.664 613.272 309.736 613.272 311.144C613.272 312.552 613.584 313.632 614.208 314.384C614.848 315.12 615.688 315.488 616.728 315.488ZM625.238 317V305.312H627.374V307.856H627.11C627.318 307.264 627.606 306.768 627.974 306.368C628.342 305.952 628.782 305.64 629.294 305.432C629.822 305.208 630.398 305.096 631.022 305.096C632.014 305.096 632.814 305.336 633.422 305.816C634.03 306.28 634.438 306.992 634.646 307.952H634.31C634.598 307.072 635.11 306.376 635.846 305.864C636.598 305.352 637.47 305.096 638.462 305.096C639.342 305.096 640.062 305.272 640.622 305.624C641.198 305.96 641.63 306.472 641.918 307.16C642.206 307.832 642.35 308.696 642.35 309.752V317H640.166V309.848C640.166 308.824 639.99 308.072 639.638 307.592C639.286 307.112 638.694 306.872 637.862 306.872C637.254 306.872 636.726 307.016 636.278 307.304C635.83 307.592 635.486 308 635.246 308.528C635.006 309.056 634.886 309.688 634.886 310.424V317H632.702V309.848C632.702 308.824 632.526 308.072 632.174 307.592C631.822 307.112 631.23 306.872 630.398 306.872C629.79 306.872 629.262 307.016 628.814 307.304C628.366 307.592 628.022 308 627.782 308.528C627.542 309.056 627.422 309.688 627.422 310.424V317H625.238ZM651.261 317.216C649.997 317.216 648.909 316.976 647.997 316.496C647.101 316 646.405 315.304 645.909 314.408C645.413 313.496 645.165 312.424 645.165 311.192C645.165 309.976 645.405 308.912 645.885 308C646.381 307.088 647.053 306.376 647.901 305.864C648.765 305.352 649.749 305.096 650.853 305.096C651.925 305.096 652.837 305.328 653.589 305.792C654.357 306.256 654.941 306.92 655.341 307.784C655.757 308.632 655.965 309.656 655.965 310.856V311.648H646.869V310.256H654.525L654.117 310.592C654.117 309.344 653.845 308.384 653.301 307.712C652.757 307.024 651.957 306.68 650.901 306.68C650.133 306.68 649.477 306.864 648.933 307.232C648.389 307.584 647.973 308.088 647.685 308.744C647.397 309.384 647.253 310.128 647.253 310.976V311.12C647.253 312.08 647.405 312.888 647.709 313.544C648.029 314.184 648.485 314.672 649.077 315.008C649.669 315.328 650.397 315.488 651.261 315.488C651.949 315.488 652.613 315.384 653.253 315.176C653.909 314.952 654.525 314.608 655.101 314.144L655.773 315.656C655.245 316.136 654.565 316.52 653.733 316.808C652.917 317.08 652.093 317.216 651.261 317.216Z" fill="white"/>
<path d="M324.494 198.855V176.19H277.421L273.353 166.019L308.222 91.4859H330.161L298.923 157.883H324.494V136.961L328.708 124.612H345.997V157.883H357.039V172.703L345.997 176.19V198.855H324.494ZM396.142 199.581C390.137 199.581 385.004 198.564 380.742 196.53C376.577 194.399 373.38 191.251 371.153 187.086C369.022 182.921 367.956 177.836 367.956 171.831V119.527C367.956 113.231 369.07 107.952 371.298 103.69C373.526 99.3315 376.771 96.0867 381.032 93.9558C385.391 91.728 390.476 90.6141 396.288 90.6141H418.662C424.764 90.6141 429.801 91.7765 433.772 94.1011C437.841 96.3289 440.892 99.6221 442.926 103.981C444.96 108.243 445.977 113.425 445.977 119.527V171.831C445.977 180.839 443.555 187.716 438.712 192.462C433.966 197.208 427.283 199.581 418.662 199.581H396.142ZM401.228 180.258H412.851C416.822 180.258 419.728 179.289 421.568 177.352C423.505 175.415 424.474 172.509 424.474 168.635V121.561C424.474 117.299 423.505 114.296 421.568 112.553C419.631 110.809 417.016 109.938 413.722 109.938H400.501C396.917 109.938 394.157 110.906 392.22 112.843C390.379 114.781 389.459 117.686 389.459 121.561V168.489C389.459 172.557 390.476 175.56 392.51 177.497C394.544 179.338 397.45 180.258 401.228 180.258ZM508.518 198.855V176.19H461.444L457.376 166.019L492.246 91.4859H514.184L482.947 157.883H508.518V136.961L512.731 124.612H530.021V157.883H541.063V172.703L530.021 176.19V198.855H508.518Z" fill="white"/>
<rect x="318" y="405" width="177" height="51" rx="8" fill="white"/>
<path d="M355.9 437.1C354.967 437.113 354.193 436.973 353.58 436.68C352.967 436.373 352.487 435.913 352.14 435.3C351.793 434.687 351.547 433.907 351.4 432.96C351.253 432.013 351.18 430.893 351.18 429.6C351.18 428.36 351.253 427.273 351.4 426.34C351.56 425.407 351.827 424.633 352.2 424.02C352.573 423.393 353.08 422.927 353.72 422.62C354.373 422.313 355.187 422.16 356.16 422.16C356.68 422.16 357.22 422.18 357.78 422.22C358.34 422.26 358.887 422.32 359.42 422.4C359.953 422.48 360.447 422.573 360.9 422.68V423.88C360.633 423.84 360.26 423.8 359.78 423.76C359.3 423.707 358.76 423.667 358.16 423.64C357.573 423.613 356.987 423.6 356.4 423.6C355.44 423.6 354.693 423.8 354.16 424.2C353.64 424.587 353.273 425.227 353.06 426.12C352.86 427 352.76 428.167 352.76 429.62C352.76 430.793 352.813 431.767 352.92 432.54C353.04 433.313 353.233 433.927 353.5 434.38C353.767 434.833 354.127 435.16 354.58 435.36C355.047 435.547 355.633 435.64 356.34 435.64C356.967 435.64 357.613 435.56 358.28 435.4C358.947 435.24 359.513 435.067 359.98 434.88V430.54H356.42V429.36C356.673 429.32 356.98 429.287 357.34 429.26C357.7 429.233 358.08 429.213 358.48 429.2C358.893 429.173 359.307 429.16 359.72 429.16C360.067 429.16 360.393 429.167 360.7 429.18C361.007 429.18 361.273 429.2 361.5 429.24V437H360.34L360.1 435.96C359.62 436.2 359.007 436.447 358.26 436.7C357.527 436.953 356.74 437.087 355.9 437.1ZM368.826 437.12C368.053 437.12 367.373 437.04 366.786 436.88C366.213 436.72 365.733 436.44 365.346 436.04C364.96 435.64 364.673 435.087 364.486 434.38C364.3 433.66 364.206 432.747 364.206 431.64C364.206 430.52 364.3 429.607 364.486 428.9C364.673 428.18 364.96 427.627 365.346 427.24C365.733 426.84 366.213 426.567 366.786 426.42C367.373 426.26 368.053 426.18 368.826 426.18C369.6 426.18 370.273 426.26 370.846 426.42C371.433 426.58 371.92 426.86 372.306 427.26C372.693 427.647 372.98 428.2 373.166 428.92C373.366 429.627 373.466 430.533 373.466 431.64C373.466 432.76 373.366 433.68 373.166 434.4C372.98 435.107 372.693 435.66 372.306 436.06C371.933 436.447 371.453 436.72 370.866 436.88C370.28 437.04 369.6 437.12 368.826 437.12ZM368.826 435.82C369.32 435.82 369.753 435.773 370.126 435.68C370.513 435.587 370.833 435.4 371.086 435.12C371.34 434.84 371.533 434.42 371.666 433.86C371.8 433.3 371.866 432.56 371.866 431.64C371.866 430.707 371.8 429.967 371.666 429.42C371.533 428.873 371.34 428.46 371.086 428.18C370.833 427.9 370.513 427.713 370.126 427.62C369.753 427.527 369.32 427.48 368.826 427.48C368.32 427.48 367.88 427.527 367.506 427.62C367.133 427.713 366.82 427.9 366.566 428.18C366.313 428.46 366.12 428.873 365.986 429.42C365.853 429.967 365.786 430.707 365.786 431.64C365.786 432.56 365.853 433.3 365.986 433.86C366.12 434.42 366.313 434.84 366.566 435.12C366.82 435.4 367.133 435.587 367.506 435.68C367.88 435.773 368.32 435.82 368.826 435.82ZM384.86 437V423.72H380.32V422.28H391V423.72H386.46V437H384.86ZM396.092 437.12C395.319 437.12 394.639 437.04 394.052 436.88C393.479 436.72 392.999 436.44 392.612 436.04C392.225 435.64 391.939 435.087 391.752 434.38C391.565 433.66 391.472 432.747 391.472 431.64C391.472 430.52 391.565 429.607 391.752 428.9C391.939 428.18 392.225 427.627 392.612 427.24C392.999 426.84 393.479 426.567 394.052 426.42C394.639 426.26 395.319 426.18 396.092 426.18C396.865 426.18 397.539 426.26 398.112 426.42C398.699 426.58 399.185 426.86 399.572 427.26C399.959 427.647 400.245 428.2 400.432 428.92C400.632 429.627 400.732 430.533 400.732 431.64C400.732 432.76 400.632 433.68 400.432 434.4C400.245 435.107 399.959 435.66 399.572 436.06C399.199 436.447 398.719 436.72 398.132 436.88C397.545 437.04 396.865 437.12 396.092 437.12ZM396.092 435.82C396.585 435.82 397.019 435.773 397.392 435.68C397.779 435.587 398.099 435.4 398.352 435.12C398.605 434.84 398.799 434.42 398.932 433.86C399.065 433.3 399.132 432.56 399.132 431.64C399.132 430.707 399.065 429.967 398.932 429.42C398.799 428.873 398.605 428.46 398.352 428.18C398.099 427.9 397.779 427.713 397.392 427.62C397.019 427.527 396.585 427.48 396.092 427.48C395.585 427.48 395.145 427.527 394.772 427.62C394.399 427.713 394.085 427.9 393.832 428.18C393.579 428.46 393.385 428.873 393.252 429.42C393.119 429.967 393.052 430.707 393.052 431.64C393.052 432.56 393.119 433.3 393.252 433.86C393.385 434.42 393.579 434.84 393.832 435.12C394.085 435.4 394.399 435.587 394.772 435.68C395.145 435.773 395.585 435.82 396.092 435.82ZM408.806 437V422.28H410.406V429.1H417.766V422.28H419.346V437H417.766V430.54H410.406V437H408.806ZM426.658 437.12C425.885 437.12 425.205 437.04 424.618 436.88C424.045 436.72 423.565 436.44 423.178 436.04C422.792 435.64 422.505 435.087 422.318 434.38C422.132 433.66 422.038 432.747 422.038 431.64C422.038 430.52 422.132 429.607 422.318 428.9C422.505 428.18 422.792 427.627 423.178 427.24C423.565 426.84 424.045 426.567 424.618 426.42C425.205 426.26 425.885 426.18 426.658 426.18C427.432 426.18 428.105 426.26 428.678 426.42C429.265 426.58 429.752 426.86 430.138 427.26C430.525 427.647 430.812 428.2 430.998 428.92C431.198 429.627 431.298 430.533 431.298 431.64C431.298 432.76 431.198 433.68 430.998 434.4C430.812 435.107 430.525 435.66 430.138 436.06C429.765 436.447 429.285 436.72 428.698 436.88C428.112 437.04 427.432 437.12 426.658 437.12ZM426.658 435.82C427.152 435.82 427.585 435.773 427.958 435.68C428.345 435.587 428.665 435.4 428.918 435.12C429.172 434.84 429.365 434.42 429.498 433.86C429.632 433.3 429.698 432.56 429.698 431.64C429.698 430.707 429.632 429.967 429.498 429.42C429.365 428.873 429.172 428.46 428.918 428.18C428.665 427.9 428.345 427.713 427.958 427.62C427.585 427.527 427.152 427.48 426.658 427.48C426.152 427.48 425.712 427.527 425.338 427.62C424.965 427.713 424.652 427.9 424.398 428.18C424.145 428.46 423.952 428.873 423.818 429.42C423.685 429.967 423.618 430.707 423.618 431.64C423.618 432.56 423.685 433.3 423.818 433.86C423.952 434.42 424.145 434.84 424.398 435.12C424.652 435.4 424.965 435.587 425.338 435.68C425.712 435.773 426.152 435.82 426.658 435.82ZM433.961 437V426.32H435.201L435.541 427.5C436.075 427.127 436.668 426.807 437.321 426.54C437.988 426.273 438.728 426.14 439.541 426.14C440.208 426.14 440.775 426.293 441.241 426.6C441.721 426.893 442.081 427.267 442.321 427.72C442.655 427.48 443.055 427.24 443.521 427C444.001 426.76 444.508 426.56 445.041 426.4C445.588 426.227 446.115 426.14 446.621 426.14C447.395 426.14 448.028 426.307 448.521 426.64C449.015 426.96 449.375 427.4 449.601 427.96C449.841 428.507 449.961 429.12 449.961 429.8V437H448.381V429.92C448.381 429.467 448.288 429.067 448.101 428.72C447.928 428.36 447.675 428.08 447.341 427.88C447.008 427.68 446.601 427.58 446.121 427.58C445.521 427.58 444.908 427.693 444.281 427.92C443.655 428.147 443.075 428.42 442.541 428.74C442.608 428.94 442.655 429.14 442.681 429.34C442.721 429.527 442.741 429.727 442.741 429.94V437H441.161V429.92C441.161 429.467 441.068 429.067 440.881 428.72C440.708 428.36 440.455 428.08 440.121 427.88C439.801 427.68 439.401 427.58 438.921 427.58C438.481 427.58 438.068 427.627 437.681 427.72C437.308 427.8 436.948 427.92 436.601 428.08C436.268 428.227 435.915 428.407 435.541 428.62V437H433.961ZM457.006 437.12C455.886 437.12 455 436.953 454.346 436.62C453.706 436.287 453.246 435.72 452.966 434.92C452.686 434.12 452.546 433.027 452.546 431.64C452.546 430.227 452.686 429.127 452.966 428.34C453.26 427.54 453.733 426.98 454.386 426.66C455.04 426.34 455.92 426.18 457.026 426.18C457.973 426.18 458.74 426.287 459.326 426.5C459.926 426.713 460.366 427.08 460.646 427.6C460.94 428.107 461.086 428.813 461.086 429.72C461.086 430.347 460.96 430.853 460.706 431.24C460.466 431.613 460.113 431.887 459.646 432.06C459.193 432.22 458.653 432.3 458.026 432.3H454.126C454.14 433.167 454.233 433.867 454.406 434.4C454.58 434.92 454.893 435.3 455.346 435.54C455.813 435.767 456.493 435.88 457.386 435.88H460.826V436.84C460.213 436.92 459.613 436.987 459.026 437.04C458.44 437.093 457.766 437.12 457.006 437.12ZM454.106 431.26H457.906C458.506 431.26 458.946 431.153 459.226 430.94C459.52 430.713 459.666 430.313 459.666 429.74C459.666 429.127 459.573 428.653 459.386 428.32C459.213 427.973 458.933 427.733 458.546 427.6C458.173 427.453 457.666 427.38 457.026 427.38C456.28 427.38 455.693 427.493 455.266 427.72C454.84 427.933 454.54 428.32 454.366 428.88C454.193 429.44 454.106 430.233 454.106 431.26Z" fill="#3D8361"/>
<path d="M774.631 82.3704C802.996 110.736 820.673 144.388 826.34 175.848C832.008 207.31 825.662 236.529 806.061 256.129C786.46 275.73 757.241 282.077 725.779 276.409C694.319 270.741 660.667 253.064 632.302 224.699C603.936 196.334 586.26 162.681 580.592 131.222C574.924 99.7594 581.271 70.541 600.871 50.9401C620.472 31.3392 649.691 24.9927 681.153 30.6606C712.613 36.3282 746.265 54.0051 774.631 82.3704Z" stroke="#C3D9CE"/>
<path d="M791.666 65.3362C820.031 93.7015 837.708 127.354 843.375 158.814C849.043 190.276 842.697 219.494 823.096 239.095C803.495 258.696 774.277 265.043 742.814 259.375C711.355 253.707 677.702 236.03 649.337 207.665C620.972 179.3 603.295 145.647 597.627 114.187C591.959 82.7253 598.306 53.5068 617.907 33.9059C637.508 14.3051 666.726 7.95853 698.188 13.6265C729.648 19.294 763.3 36.9709 791.666 65.3362Z" stroke="#C3D9CE"/>
<path d="M808.701 48.301C837.066 76.6663 854.743 110.319 860.411 141.779C866.078 173.241 859.732 202.459 840.131 222.06C820.53 241.661 791.312 248.007 759.85 242.34C728.39 236.672 694.737 218.995 666.372 190.63C638.007 162.265 620.33 128.612 614.662 97.1522C608.994 65.6901 615.341 36.4716 634.942 16.8708C654.543 -2.7301 683.761 -9.07663 715.223 -3.4087C746.683 2.25884 780.336 19.9357 808.701 48.301Z" stroke="#C3D9CE"/>
</g>
<defs>
<clipPath id="clip0_6825_3445">
<rect width="814" height="510" rx="8" fill="white"/>
</clipPath>
</defs>
</svg>
