<svg width="80" height="80" viewBox="0 0 80 80" fill="none" xmlns="http://www.w3.org/2000/svg">
<path d="M39.9987 30C37.3465 30 34.803 31.0536 32.9276 32.9289C31.0523 34.8043 29.9987 37.3478 29.9987 40C29.9987 42.6522 31.0523 45.1957 32.9276 47.0711C34.803 48.9464 37.3465 50 39.9987 50C42.6509 50 45.1944 48.9464 47.0698 47.0711C48.9451 45.1957 49.9987 42.6522 49.9987 40C49.9987 37.3478 48.9451 34.8043 47.0698 32.9289C45.1944 31.0536 42.6509 30 39.9987 30ZM39.9987 56.6667C35.5784 56.6667 31.3392 54.9107 28.2136 51.7851C25.088 48.6595 23.332 44.4203 23.332 40C23.332 35.5797 25.088 31.3405 28.2136 28.2149C31.3392 25.0893 35.5784 23.3333 39.9987 23.3333C44.419 23.3333 48.6582 25.0893 51.7838 28.2149C54.9094 31.3405 56.6654 35.5797 56.6654 40C56.6654 44.4203 54.9094 48.6595 51.7838 51.7851C48.6582 54.9107 44.419 56.6667 39.9987 56.6667ZM39.9987 15C23.332 15 9.0987 25.3667 3.33203 40C9.0987 54.6333 23.332 65 39.9987 65C56.6654 65 70.8987 54.6333 76.6654 40C70.8987 25.3667 56.6654 15 39.9987 15Z" fill="white"/>
</svg>
