<svg width="376" height="509" viewBox="0 0 376 509" fill="none" xmlns="http://www.w3.org/2000/svg">
<g clip-path="url(#clip0_6513_31927)">
<rect width="376" height="509" fill="#224835"/>
<path d="M338.426 259.6L343.859 254.167C344.501 253.525 344.501 252.475 343.859 251.834L338.426 246.4" stroke="white" stroke-width="1.5" stroke-miterlimit="10" stroke-linecap="round" stroke-linejoin="round"/>
<path d="M359.047 115.476C381.693 138.122 395.81 164.993 400.337 190.123C404.865 215.253 399.799 238.615 384.119 254.295C368.439 269.975 345.076 275.041 319.946 270.514C294.817 265.987 267.945 251.869 245.299 229.223C222.653 206.577 208.536 179.706 204.009 154.576C199.482 129.446 204.547 106.084 220.227 90.4037C235.907 74.7237 259.27 69.658 284.4 74.1853C309.529 78.7124 336.401 92.8298 359.047 115.476Z" stroke="#C3D9CE" stroke-width="0.5"/>
<path d="M372.637 101.888C395.283 124.534 409.4 151.405 413.927 176.535C418.454 201.665 413.389 225.028 397.709 240.707C382.029 256.387 358.666 261.453 333.536 256.926C308.407 252.399 281.535 238.281 258.889 215.635C236.243 192.989 222.126 166.118 217.599 140.989C213.071 115.858 218.137 92.4957 233.817 76.8158C249.497 61.1358 272.86 56.0702 297.99 60.5974C323.119 65.1245 349.991 79.2419 372.637 101.888Z" stroke="#C3D9CE" stroke-width="0.5"/>
<path d="M386.223 88.3C408.869 110.946 422.986 137.818 427.513 162.947C432.04 188.077 426.975 211.44 411.295 227.12C395.615 242.8 372.252 247.865 347.122 243.338C321.993 238.811 295.121 224.693 272.475 202.047C249.829 179.401 235.712 152.53 231.185 127.401C226.657 102.27 231.723 78.9078 247.403 63.2279C263.083 47.5479 286.446 42.4823 311.576 47.0095C336.705 51.5366 363.577 65.654 386.223 88.3Z" stroke="#C3D9CE" stroke-width="0.5"/>
<path d="M346 469L346.752 483.964L361.217 480.056L347.217 485.396L355.405 497.944L346 486.28L336.595 497.944L344.783 485.396L330.783 480.056L345.248 483.964L346 469Z" fill="#ECF3EF"/>
<path d="M26 16L26.7524 30.9645L41.2169 27.0557L27.2174 32.3955L35.4046 44.9443L26 33.28L16.5954 44.9443L24.7826 32.3955L10.7831 27.0557L25.2476 30.9645L26 16Z" fill="#ECF3EF"/>
</g>
<defs>
<clipPath id="clip0_6513_31927">
<rect width="376" height="509" fill="white"/>
</clipPath>
</defs>
</svg>
