<svg width="1440" height="862" viewBox="0 0 1440 862" fill="none" xmlns="http://www.w3.org/2000/svg">
<g clip-path="url(#clip0_6460_2981)">
<rect width="1440" height="862" fill="#224835"/>
<path d="M1389.59 136.893C1443.38 190.68 1476.91 254.505 1487.67 314.197C1498.42 373.892 1486.39 429.402 1449.13 466.663C1411.87 503.924 1356.36 515.955 1296.66 505.201C1236.97 494.447 1173.15 460.914 1119.36 407.127C1065.57 353.341 1032.04 289.516 1021.29 229.824C1010.53 170.129 1022.56 114.618 1059.82 77.3575C1097.09 40.0966 1152.6 28.0659 1212.29 38.8199C1271.98 49.5735 1335.81 83.1068 1389.59 136.893Z" stroke="#C3D9CE"/>
<path d="M1421.86 104.628C1475.65 158.414 1509.18 222.239 1519.93 281.932C1530.69 341.626 1518.66 397.137 1481.4 434.398C1444.13 471.659 1388.62 483.689 1328.93 472.935C1269.24 462.182 1205.41 428.648 1151.63 374.862C1097.84 321.075 1064.31 257.25 1053.55 197.558C1042.8 137.863 1054.83 82.3528 1092.09 45.0919C1129.35 7.83096 1184.86 -4.19977 1244.56 6.55426C1304.25 17.3079 1368.07 50.8412 1421.86 104.628Z" stroke="#C3D9CE"/>
<path d="M1454.13 72.3601C1507.92 126.147 1541.45 189.972 1552.2 249.664C1562.96 309.359 1550.93 364.869 1513.67 402.13C1476.4 439.391 1420.89 451.422 1361.2 440.668C1301.51 429.914 1237.68 396.381 1183.9 342.594C1130.11 288.808 1096.58 224.983 1085.82 165.29C1075.07 105.596 1087.1 50.0852 1124.36 12.8243C1161.62 -24.4366 1217.13 -36.4673 1276.83 -25.7133C1336.52 -14.9597 1400.34 18.5736 1454.13 72.3601Z" stroke="#C3D9CE"/>
<path d="M1408 787L1409.5 816.929L1438.43 809.111L1410.43 819.791L1426.81 844.889L1408 821.56L1389.19 844.889L1405.57 819.791L1377.57 809.111L1406.5 816.929L1408 787Z" fill="#ECF3EF"/>
<path d="M1038 186L1039.5 215.929L1068.43 208.111L1040.43 218.791L1056.81 243.889L1038 220.56L1019.19 243.889L1035.57 218.791L1007.57 208.111L1036.5 215.929L1038 186Z" fill="#ECF3EF"/>
<path d="M72 63L73.5047 92.9289L102.434 85.1115L74.4347 95.7911L90.8091 120.889L72 97.56L53.1909 120.889L69.5653 95.7911L41.5662 85.1115L70.4953 92.9289L72 63Z" fill="#ECF3EF"/>
</g>
<defs>
<clipPath id="clip0_6460_2981">
<rect width="1440" height="862" fill="white"/>
</clipPath>
</defs>
</svg>
