<svg width="267" height="59" viewBox="0 0 267 59" fill="none" xmlns="http://www.w3.org/2000/svg">
<path d="M96.5033 27.4781H93.5375C93.4529 26.9918 93.2969 26.5609 93.0696 26.1855C92.8423 25.8049 92.5594 25.4824 92.2211 25.2181C91.8827 24.9537 91.4968 24.7555 91.0633 24.6233C90.635 24.4859 90.1725 24.4171 89.6755 24.4171C88.7926 24.4171 88.0102 24.6392 87.3282 25.0833C86.6462 25.5221 86.1123 26.167 85.7263 27.0182C85.3404 27.8641 85.1474 28.8976 85.1474 30.1189C85.1474 31.3612 85.3404 32.408 85.7263 33.2592C86.1175 34.105 86.6515 34.7447 87.3282 35.1782C88.0102 35.6065 88.79 35.8206 89.6676 35.8206C90.154 35.8206 90.6086 35.7571 91.0316 35.6303C91.4598 35.4981 91.8431 35.3051 92.1814 35.0514C92.5251 34.7976 92.8132 34.4857 93.0458 34.1156C93.2837 33.7455 93.4476 33.3226 93.5375 32.8468L96.5033 32.8627C96.3923 33.6345 96.1517 34.3588 95.7817 35.0355C95.4169 35.7122 94.9384 36.3096 94.3463 36.8277C93.7542 37.3405 93.0617 37.7423 92.2686 38.0331C91.4756 38.3186 90.5954 38.4613 89.6279 38.4613C88.2005 38.4613 86.9264 38.1309 85.8056 37.47C84.6848 36.8092 83.802 35.8549 83.157 34.6073C82.512 33.3596 82.1895 31.8635 82.1895 30.1189C82.1895 28.3689 82.5146 26.8728 83.1649 25.6304C83.8152 24.3828 84.7007 23.4285 85.8215 22.7677C86.9423 22.1068 88.2111 21.7764 89.6279 21.7764C90.532 21.7764 91.3725 21.9033 92.1497 22.1571C92.9268 22.4108 93.6194 22.7835 94.2274 23.2752C94.8353 23.7616 95.3349 24.359 95.7262 25.0674C96.1227 25.7705 96.3817 26.5741 96.5033 27.4781ZM102.576 38.4851C101.804 38.4851 101.109 38.3476 100.49 38.0727C99.8769 37.7925 99.3905 37.3802 99.031 36.8356C98.6768 36.2911 98.4997 35.6197 98.4997 34.8214C98.4997 34.1341 98.6266 33.5658 98.8803 33.1164C99.1341 32.6671 99.4804 32.3076 99.9192 32.0379C100.358 31.7683 100.852 31.5648 101.402 31.4273C101.957 31.2846 102.531 31.1815 103.123 31.118C103.837 31.044 104.416 30.9779 104.86 30.9198C105.304 30.8564 105.626 30.7612 105.827 30.6343C106.033 30.5021 106.136 30.2986 106.136 30.0237V29.9761C106.136 29.3787 105.959 28.9161 105.605 28.5883C105.251 28.2606 104.741 28.0967 104.075 28.0967C103.371 28.0967 102.814 28.25 102.401 28.5566C101.994 28.8633 101.719 29.2254 101.577 29.643L98.8962 29.2624C99.1077 28.5223 99.4566 27.9037 99.943 27.4068C100.429 26.9045 101.024 26.5292 101.727 26.2807C102.43 26.0269 103.208 25.9001 104.059 25.9001C104.646 25.9001 105.23 25.9688 105.811 26.1062C106.393 26.2437 106.924 26.471 107.405 26.7882C107.886 27.1001 108.272 27.5257 108.563 28.065C108.859 28.6042 109.007 29.2783 109.007 30.0871V38.2393H106.247V36.566H106.152C105.978 36.9044 105.732 37.2216 105.415 37.5176C105.103 37.8084 104.709 38.0436 104.233 38.2234C103.763 38.3979 103.21 38.4851 102.576 38.4851ZM103.321 36.3757C103.897 36.3757 104.397 36.262 104.82 36.0347C105.243 35.8021 105.568 35.4954 105.795 35.1148C106.028 34.7342 106.144 34.3192 106.144 33.8698V32.4344C106.054 32.5085 105.901 32.5772 105.684 32.6406C105.473 32.7041 105.235 32.7596 104.971 32.8072C104.706 32.8547 104.445 32.897 104.186 32.934C103.927 32.971 103.702 33.0028 103.512 33.0292C103.083 33.0873 102.7 33.1825 102.362 33.3147C102.023 33.4468 101.756 33.6319 101.561 33.8698C101.365 34.1024 101.267 34.4037 101.267 34.7738C101.267 35.3025 101.46 35.7016 101.846 35.9713C102.232 36.2409 102.724 36.3757 103.321 36.3757ZM111.894 38.2393V26.0587H114.637V28.1284H114.78C115.034 27.4306 115.454 26.886 116.041 26.4948C116.628 26.0983 117.328 25.9001 118.143 25.9001C118.967 25.9001 119.662 26.1009 120.228 26.5027C120.799 26.8992 121.201 27.4411 121.433 28.1284H121.56C121.83 27.4517 122.285 26.9125 122.924 26.5107C123.569 26.1036 124.333 25.9001 125.216 25.9001C126.337 25.9001 127.252 26.2543 127.96 26.9627C128.668 27.6711 129.023 28.7047 129.023 30.0633V38.2393H126.144V30.5074C126.144 29.7514 125.943 29.199 125.541 28.85C125.139 28.4958 124.648 28.3187 124.066 28.3187C123.374 28.3187 122.832 28.5355 122.441 28.969C122.055 29.3972 121.862 29.955 121.862 30.6422V38.2393H119.047V30.3885C119.047 29.7594 118.856 29.2571 118.476 28.8818C118.1 28.5064 117.609 28.3187 117.001 28.3187C116.588 28.3187 116.213 28.4245 115.875 28.6359C115.536 28.8421 115.267 29.1355 115.066 29.5162C114.865 29.8915 114.764 30.3303 114.764 30.8326V38.2393H111.894ZM131.886 42.655V26.4638H134.615V28.4111H134.776C134.919 28.1249 135.121 27.8208 135.382 27.4988C135.642 27.1717 135.995 26.8931 136.44 26.6631C136.884 26.428 137.452 26.3105 138.142 26.3105C139.051 26.3105 139.872 26.543 140.602 27.0081C141.338 27.4681 141.921 28.1504 142.35 29.055C142.785 29.9545 143.002 31.0585 143.002 32.3669C143.002 33.6599 142.79 34.7588 142.366 35.6634C141.941 36.568 141.364 37.258 140.633 37.7333C139.902 38.2086 139.074 38.4462 138.149 38.4462C137.475 38.4462 136.915 38.3338 136.47 38.1089C136.026 37.8841 135.668 37.6132 135.397 37.2963C135.131 36.9743 134.924 36.6702 134.776 36.384H134.661V42.655H131.886ZM134.607 32.3515C134.607 33.1131 134.715 33.78 134.929 34.3524C135.149 34.9249 135.463 35.3721 135.872 35.694C136.286 36.0109 136.787 36.1694 137.375 36.1694C137.988 36.1694 138.502 36.0058 138.916 35.6787C139.33 35.3465 139.642 34.8942 139.851 34.3218C140.066 33.7443 140.173 33.0875 140.173 32.3515C140.173 31.6207 140.068 30.9716 139.859 30.4043C139.649 29.837 139.337 29.3923 138.924 29.0704C138.51 28.7484 137.993 28.5874 137.375 28.5874C136.782 28.5874 136.279 28.7433 135.865 29.055C135.451 29.3668 135.136 29.8038 134.922 30.366C134.712 30.9282 134.607 31.59 134.607 32.3515ZM152.884 33.2868V26.4638H155.659V38.2393H152.968V36.1464H152.846C152.58 36.8057 152.143 37.3449 151.535 37.7639C150.931 38.183 150.188 38.3926 149.304 38.3926C148.532 38.3926 147.85 38.2214 147.257 37.8789C146.669 37.5314 146.209 37.028 145.877 36.3687C145.545 35.7043 145.379 34.9019 145.379 33.9615V26.4638H148.154V33.5322C148.154 34.2783 148.358 34.8712 148.767 35.3107C149.176 35.7503 149.713 35.97 150.377 35.97C150.786 35.97 151.182 35.8704 151.565 35.671C151.949 35.4717 152.263 35.1753 152.508 34.7818C152.759 34.3831 152.884 33.8848 152.884 33.2868ZM167.82 29.5763L165.29 29.8523C165.218 29.5968 165.093 29.3566 164.914 29.1317C164.74 28.9068 164.505 28.7254 164.209 28.5874C163.912 28.4494 163.55 28.3804 163.12 28.3804C162.543 28.3804 162.057 28.5056 161.664 28.756C161.275 29.0065 161.084 29.331 161.089 29.7297C161.084 30.0721 161.209 30.3506 161.464 30.5653C161.725 30.7799 162.154 30.9563 162.752 31.0943L164.761 31.5236C165.875 31.7638 166.703 32.1446 167.245 32.6659C167.792 33.1872 168.068 33.8695 168.073 34.7128C168.068 35.4538 167.85 36.108 167.421 36.6753C166.997 37.2375 166.407 37.6771 165.65 37.9939C164.894 38.3108 164.025 38.4692 163.044 38.4692C161.602 38.4692 160.442 38.1677 159.563 37.5646C158.684 36.9564 158.16 36.1106 157.992 35.0271L160.698 34.7664C160.82 35.298 161.081 35.6992 161.48 35.97C161.878 36.2409 162.397 36.3763 163.036 36.3763C163.695 36.3763 164.224 36.2409 164.623 35.97C165.027 35.6992 165.228 35.3644 165.228 34.9657C165.228 34.6284 165.098 34.3499 164.838 34.1301C164.582 33.9104 164.183 33.7417 163.642 33.6241L161.633 33.2025C160.503 32.9674 159.668 32.5713 159.126 32.0142C158.584 31.452 158.316 30.7416 158.321 29.883C158.316 29.1573 158.513 28.5286 158.911 27.9971C159.315 27.4604 159.875 27.0465 160.59 26.7551C161.311 26.4587 162.142 26.3105 163.082 26.3105C164.462 26.3105 165.548 26.6044 166.34 27.1921C167.137 27.7799 167.631 28.5746 167.82 29.5763Z" fill="white"/>
<path d="M181.002 27.5524C180.874 27.1385 180.698 26.7679 180.473 26.4408C180.253 26.1086 179.987 25.825 179.676 25.5899C179.369 25.3548 179.016 25.1784 178.618 25.0609C178.219 24.9382 177.785 24.8769 177.314 24.8769C176.471 24.8769 175.72 25.089 175.061 25.5132C174.401 25.9374 173.882 26.5609 173.504 27.3838C173.131 28.2015 172.945 29.1981 172.945 30.3736C172.945 31.5594 173.131 32.5636 173.504 33.3865C173.877 34.2093 174.396 34.8354 175.061 35.2647C175.725 35.6889 176.497 35.901 177.376 35.901C178.173 35.901 178.863 35.7477 179.446 35.4411C180.033 35.1344 180.486 34.7 180.803 34.1378C181.119 33.5705 181.278 32.9061 181.278 32.1446L181.922 32.2442H177.659V30.021H184.03V31.9069C184.03 33.2511 183.744 34.4138 183.171 35.3951C182.599 36.3763 181.812 37.1328 180.81 37.6643C179.809 38.1907 178.659 38.4539 177.36 38.4539C175.914 38.4539 174.644 38.1294 173.55 37.4803C172.462 36.8261 171.611 35.8985 170.997 34.6974C170.389 33.4913 170.085 32.0602 170.085 30.4043C170.085 29.1368 170.264 28.0047 170.622 27.0081C170.985 26.0115 171.491 25.1657 172.14 24.4706C172.789 23.7704 173.55 23.2389 174.424 22.876C175.298 22.508 176.249 22.324 177.276 22.324C178.145 22.324 178.955 22.4518 179.706 22.7073C180.458 22.9578 181.125 23.3155 181.707 23.7806C182.295 24.2457 182.778 24.7977 183.156 25.4365C183.534 26.0754 183.782 26.7807 183.9 27.5524H181.002ZM191.871 38.4692C190.69 38.4692 189.671 38.2239 188.812 37.7333C187.958 37.2375 187.302 36.5373 186.842 35.6327C186.382 34.723 186.152 33.6523 186.152 32.4205C186.152 31.2093 186.382 30.1462 186.842 29.2314C187.307 28.3114 187.956 27.5959 188.789 27.0848C189.622 26.5686 190.601 26.3105 191.725 26.3105C192.451 26.3105 193.136 26.428 193.78 26.6631C194.429 26.8931 195.001 27.2509 195.497 27.7364C195.998 28.222 196.391 28.8404 196.678 29.5917C196.964 30.3379 197.107 31.2272 197.107 32.2595V33.1105H187.455V31.2399H194.447C194.442 30.7084 194.327 30.2356 194.102 29.8217C193.877 29.4026 193.562 29.0729 193.159 28.8327C192.76 28.5925 192.295 28.4724 191.763 28.4724C191.196 28.4724 190.698 28.6104 190.269 28.8864C189.839 29.1572 189.504 29.515 189.264 29.9597C189.029 30.3992 188.909 30.8822 188.904 31.4086V33.0415C188.904 33.7264 189.029 34.3141 189.28 34.8048C189.53 35.2903 189.88 35.6634 190.33 35.924C190.78 36.1796 191.306 36.3074 191.909 36.3074C192.313 36.3074 192.678 36.2511 193.005 36.1387C193.333 36.0211 193.616 35.8499 193.856 35.6251C194.097 35.4002 194.278 35.1216 194.401 34.7894L196.992 35.0807C196.828 35.7656 196.517 36.3636 196.057 36.8747C195.602 37.3806 195.019 37.7742 194.309 38.0553C193.598 38.3313 192.786 38.4692 191.871 38.4692ZM202.23 31.3396V38.2393H199.455V26.4638H202.107V28.4647H202.245C202.516 27.8054 202.948 27.2816 203.541 26.8931C204.139 26.5047 204.877 26.3105 205.756 26.3105C206.569 26.3105 207.277 26.4843 207.88 26.8318C208.488 27.1793 208.958 27.6828 209.291 28.3421C209.628 29.0014 209.794 29.8012 209.789 30.7416V38.2393H207.014V31.1709C207.014 30.3839 206.809 29.768 206.4 29.3234C205.997 28.8787 205.437 28.6564 204.721 28.6564C204.236 28.6564 203.804 28.7637 203.426 28.9784C203.053 29.1879 202.759 29.492 202.544 29.8907C202.335 30.2893 202.23 30.7723 202.23 31.3396ZM212.61 38.2393V26.4638H215.385V38.2393H212.61ZM214.005 24.7926C213.566 24.7926 213.188 24.6469 212.871 24.3556C212.554 24.0592 212.395 23.704 212.395 23.29C212.395 22.8709 212.554 22.5157 212.871 22.2244C213.188 21.9279 213.566 21.7797 214.005 21.7797C214.45 21.7797 214.828 21.9279 215.14 22.2244C215.457 22.5157 215.615 22.8709 215.615 23.29C215.615 23.704 215.457 24.0592 215.14 24.3556C214.828 24.6469 214.45 24.7926 214.005 24.7926ZM223.452 38.4692C222.271 38.4692 221.252 38.2239 220.393 37.7333C219.54 37.2375 218.883 36.5373 218.423 35.6327C217.963 34.723 217.733 33.6523 217.733 32.4205C217.733 31.2093 217.963 30.1462 218.423 29.2314C218.888 28.3114 219.537 27.5959 220.37 27.0848C221.203 26.5686 222.182 26.3105 223.306 26.3105C224.032 26.3105 224.717 26.428 225.361 26.6631C226.01 26.8931 226.583 27.2509 227.078 27.7364C227.579 28.222 227.973 28.8404 228.259 29.5917C228.545 30.3379 228.688 31.2272 228.688 32.2595V33.1105H219.036V31.2399H226.028C226.023 30.7084 225.908 30.2356 225.683 29.8217C225.458 29.4026 225.144 29.0729 224.74 28.8327C224.341 28.5925 223.876 28.4724 223.345 28.4724C222.777 28.4724 222.279 28.6104 221.85 28.8864C221.421 29.1572 221.086 29.515 220.846 29.9597C220.61 30.3992 220.49 30.8822 220.485 31.4086V33.0415C220.485 33.7264 220.61 34.3141 220.861 34.8048C221.111 35.2903 221.461 35.6634 221.911 35.924C222.361 36.1796 222.887 36.3074 223.49 36.3074C223.894 36.3074 224.26 36.2511 224.587 36.1387C224.914 36.0211 225.197 35.8499 225.438 35.6251C225.678 35.4002 225.859 35.1216 225.982 34.7894L228.573 35.0807C228.41 35.7656 228.098 36.3636 227.638 36.8747C227.183 37.3806 226.6 37.7742 225.89 38.0553C225.18 38.3313 224.367 38.4692 223.452 38.4692Z" fill="#43AD69"/>
<path d="M19.7381 15.8775L24.2339 14.0993L29.0801 12.1806L31.908 11.0632L33.9262 10.2651L38.7723 8.34646L41.8317 7.13652L39.4665 6.24901L38.8045 6L38.7723 6.01277L38.1457 6.24901L33.9262 7.84205L29.0801 9.67452L25.4069 11.0632L24.2339 11.507L19.3878 13.3363L14.5384 15.1687L12.6649 15.8775L9.69228 17.0012L4.84614 18.8337L0 20.6662V20.6917V20.7172L4.84614 22.4986L9.69228 24.2832L13.0216 25.5059L14.5384 26.0646L19.3878 27.846L24.2339 29.6274L26.1171 30.3201L29.0801 31.412L33.9262 33.1934L38.7723 34.9747L38.7948 34.9811L43.6185 32.9507L48.4646 30.9076L49.8625 30.3201L53.314 28.8676L58.1601 26.8244L61.2934 25.5059L63.0063 24.7844L67.8524 22.7444L72.6985 20.7045V20.6917H72.7242L75.1698 19.6605L72.6985 18.7315L71.0917 18.1313L67.8524 19.4849L64.973 20.6917L63.0063 21.5153L58.1601 23.5426L53.4682 25.5059L53.314 25.573L48.4646 27.6002L43.6185 29.6274L41.9635 30.3201L38.6952 31.7089L38.7723 31.728L38.6791 31.6961L35.4302 30.5532L34.7778 30.3201L33.9262 30.0201L32.043 29.3592H32.0398L29.0801 28.3121L24.2339 26.6073L21.1135 25.5059L19.3878 24.8994L14.5384 23.1914L11.2155 22.0166H11.2123L9.69228 21.4802L7.51345 20.714L7.45239 20.6917H7.56808L9.69228 19.8521L14.5384 17.9334L19.3878 16.0179" fill="#43AD69"/>
<path d="M38.3224 39.8713L63.3976 29.5469L63.269 43.8946C63.269 43.8946 53.7135 44.4399 38.0391 53.9997L38.3224 39.8713Z" fill="white"/>
<path d="M38.9444 39.8926L13.5859 29.5469L13.713 43.896C13.713 43.896 23.1593 44.4412 38.6545 53.9997L38.9444 39.8926Z" fill="white"/>
<path d="M65.5647 16.2176L64.2371 15.7252L63.4412 15.4311L60.1534 14.2129L58.5225 13.6054L56.285 12.7773L53.6038 13.9092L48.6818 15.9778L48.1176 16.2176L43.9621 17.9665L43.7631 18.0496L40.4068 19.466L43.2151 20.8057L43.8349 21.1062L44.2393 20.9144L47.5631 19.5172L48.6818 19.044L53.6038 16.9721L55.3945 16.2176L56.5916 15.7124L61.0536 17.1096L58.5225 18.2095L53.6038 20.3453L52.0023 21.0391L48.6818 22.481L43.7631 24.6168L40.896 25.8605L38.6454 26.7877L35.9904 25.8605L33.9257 25.1412L29.007 23.4274L24.0883 21.7105L22.1703 21.0391H21.9094L22.0268 20.9879L24.0883 20.1214L29.007 18.0496L33.3549 16.2176L33.9257 15.9746L38.8444 13.906L43.7631 11.8309L44.8004 11.3961L48.4307 9.86781L45.332 8.7168L43.7631 9.33707L38.8444 11.2842L38.3878 11.4664H38.391L33.9257 13.2345L29.007 15.1817L26.3943 16.2176L24.0883 17.132L19.1695 19.0791L17.9464 19.5651H17.9431L14.4922 20.9336L14.7923 21.0391L19.1695 22.5993L24.0883 24.3514L28.322 25.8605L29.007 26.1035L33.9257 27.8588L35.2304 28.3224L38.665 29.547L38.8444 29.4703L42.2171 28.0347H42.2203L43.7631 27.376L47.3249 25.8605L48.6818 25.2818L53.6038 23.1908L58.242 21.2149L58.2746 21.2021L58.4182 21.1414L58.5225 21.0966L58.653 21.0391H58.6563L63.4412 19.0056L67.9262 17.0936L65.5647 16.2176Z" fill="white"/>
<path d="M9.05565 22.4076L8.88394 34.0751L6.78981 31.1976L4.52734 32.4758V20.4902L9.05565 22.4076Z" fill="#43AD69"/>
</svg>
