<svg width="69" height="69" viewBox="0 0 69 69" fill="none" xmlns="http://www.w3.org/2000/svg">
<rect width="68.4706" height="68.4706" transform="translate(0.117188 0.323242)" fill="#FFB54E"/>
<g clip-path="url(#clip0_5494_78599)">
<path d="M41.5234 21.0586H27.1797C23.6848 21.0586 20.8516 23.8918 20.8516 27.3867V41.7305C20.8516 45.2254 23.6848 48.0586 27.1797 48.0586H41.5234C45.0184 48.0586 47.8516 45.2254 47.8516 41.7305V27.3867C47.8516 23.8918 45.0184 21.0586 41.5234 21.0586Z" fill="url(#paint0_radial_5494_78599)"/>
<path d="M41.5234 21.0586H27.1797C23.6848 21.0586 20.8516 23.8918 20.8516 27.3867V41.7305C20.8516 45.2254 23.6848 48.0586 27.1797 48.0586H41.5234C45.0184 48.0586 47.8516 45.2254 47.8516 41.7305V27.3867C47.8516 23.8918 45.0184 21.0586 41.5234 21.0586Z" fill="url(#paint1_radial_5494_78599)"/>
<path d="M34.3525 24.0117C31.4882 24.0117 31.1286 24.0243 30.0037 24.0754C28.8809 24.1269 28.1145 24.3046 27.4439 24.5654C26.7501 24.8348 26.1617 25.1952 25.5755 25.7816C24.9888 26.3679 24.6284 26.9563 24.3582 27.6498C24.0966 28.3205 23.9187 29.0873 23.8682 30.2096C23.8179 31.3346 23.8047 31.6943 23.8047 34.5587C23.8047 37.4231 23.8173 37.7815 23.8684 38.9064C23.9201 40.0293 24.0978 40.7957 24.3584 41.4663C24.628 42.16 24.9884 42.7485 25.5748 43.3347C26.1609 43.9214 26.7493 44.2826 27.4425 44.552C28.1136 44.8128 28.8802 44.9905 30.0028 45.042C31.1278 45.0931 31.487 45.1057 34.3512 45.1057C37.2159 45.1057 37.5743 45.0931 38.6992 45.042C39.822 44.9905 40.5893 44.8128 41.2604 44.552C41.9539 44.2826 42.5414 43.9214 43.1274 43.3347C43.7141 42.7485 44.0744 42.16 44.3447 41.4666C44.604 40.7957 44.782 40.029 44.8347 38.9066C44.8853 37.7817 44.8984 37.4231 44.8984 34.5587C44.8984 31.6943 44.8853 31.3348 44.8347 30.2098C44.782 29.087 44.604 28.3206 44.3447 27.6501C44.0744 26.9563 43.7141 26.3679 43.1274 25.7816C42.5408 25.195 41.9541 24.8346 41.2598 24.5655C40.5874 24.3046 39.8205 24.1268 38.6977 24.0754C37.5727 24.0243 37.2145 24.0117 34.3492 24.0117H34.3525ZM33.4064 25.9124C33.6872 25.9119 34.0006 25.9124 34.3525 25.9124C37.1686 25.9124 37.5023 25.9225 38.6144 25.973C39.6427 26.0201 40.2009 26.1919 40.5726 26.3363C41.0649 26.5274 41.4158 26.7559 41.7847 27.1252C42.1538 27.4943 42.3823 27.8458 42.5739 28.338C42.7183 28.7093 42.8903 29.2674 42.9371 30.2958C42.9877 31.4076 42.9986 31.7415 42.9986 34.5563C42.9986 37.371 42.9877 37.705 42.9371 38.8168C42.8901 39.8451 42.7183 40.4033 42.5739 40.7746C42.3828 41.2668 42.1538 41.6173 41.7847 41.9862C41.4155 42.3554 41.0651 42.5838 40.5726 42.775C40.2013 42.9201 39.6427 43.0914 38.6144 43.1385C37.5025 43.189 37.1686 43.2 34.3525 43.2C31.5363 43.2 31.2025 43.189 30.0907 43.1385C29.0624 43.091 28.5043 42.9192 28.1322 42.7748C27.6401 42.5836 27.2884 42.3552 26.9193 41.986C26.5501 41.6169 26.3217 41.2662 26.1301 40.7738C25.9857 40.4024 25.8137 39.8443 25.7668 38.8159C25.7163 37.7041 25.7062 37.3702 25.7062 34.5536C25.7062 31.7371 25.7163 31.405 25.7668 30.2931C25.8139 29.2648 25.9857 28.7067 26.1301 28.3349C26.3213 27.8427 26.5501 27.4911 26.9194 27.122C27.2886 26.7529 27.6401 26.5243 28.1323 26.3328C28.5041 26.1878 29.0624 26.0164 30.0907 25.9691C31.0637 25.9251 31.4407 25.9119 33.4064 25.9097V25.9124ZM39.9824 27.6636C39.2837 27.6636 38.7168 28.2299 38.7168 28.9288C38.7168 29.6275 39.2837 30.1944 39.9824 30.1944C40.6812 30.1944 41.2481 29.6275 41.2481 28.9288C41.2481 28.23 40.6812 27.6632 39.9824 27.6632V27.6636ZM34.3525 29.1424C31.3614 29.1424 28.9363 31.5675 28.9363 34.5587C28.9363 37.5499 31.3614 39.9739 34.3525 39.9739C37.3437 39.9739 39.768 37.5499 39.768 34.5587C39.768 31.5676 37.3435 29.1424 34.3523 29.1424H34.3525ZM34.3525 31.043C36.2941 31.043 37.8682 32.6169 37.8682 34.5587C37.8682 36.5003 36.2941 38.0744 34.3525 38.0744C32.4109 38.0744 30.8369 36.5003 30.8369 34.5587C30.8369 32.6169 32.4108 31.043 34.3525 31.043Z" fill="white"/>
</g>
<defs>
<radialGradient id="paint0_radial_5494_78599" cx="0" cy="0" r="1" gradientUnits="userSpaceOnUse" gradientTransform="translate(28.0234 50.1381) rotate(-90) scale(26.759 24.888)">
<stop stop-color="#FFDD55"/>
<stop offset="0.1" stop-color="#FFDD55"/>
<stop offset="0.5" stop-color="#FF543E"/>
<stop offset="1" stop-color="#C837AB"/>
</radialGradient>
<radialGradient id="paint1_radial_5494_78599" cx="0" cy="0" r="1" gradientUnits="userSpaceOnUse" gradientTransform="translate(16.329 23.0035) rotate(78.681) scale(11.9614 49.3054)">
<stop stop-color="#3771C8"/>
<stop offset="0.128" stop-color="#3771C8"/>
<stop offset="1" stop-color="#6600FF" stop-opacity="0"/>
</radialGradient>
<clipPath id="clip0_5494_78599">
<rect width="27" height="27" fill="white" transform="translate(20.8516 21.0586)"/>
</clipPath>
</defs>
</svg>
