<svg width="69" height="69" viewBox="0 0 69 69" fill="none" xmlns="http://www.w3.org/2000/svg">
<rect width="68.4706" height="68.4706" transform="translate(0.175781 0.323242)" fill="#0076B2"/>
<g clip-path="url(#clip0_5494_78615)">
<path d="M46.3633 20.0265H21.9883C21.4352 20.0208 20.9025 20.2348 20.5071 20.6215C20.1116 21.0082 19.8857 21.5359 19.8789 22.089V46.5624C19.8869 47.1146 20.1134 47.6412 20.5087 48.0268C20.904 48.4125 21.436 48.6259 21.9883 48.6202H46.3633C46.9164 48.6246 47.4487 48.4099 47.844 48.023C48.2392 47.6361 48.4652 47.1084 48.4727 46.5554V22.0819C48.4628 21.5305 48.2357 21.0053 47.8407 20.6204C47.4457 20.2355 46.9148 20.0221 46.3633 20.0265Z" fill="#0076B2"/>
<path d="M24.1109 30.7441H28.3555V44.4012H24.1109V30.7441ZM26.2344 23.9473C26.7212 23.9473 27.1971 24.0917 27.6018 24.3622C28.0066 24.6327 28.322 25.0172 28.5082 25.467C28.6944 25.9168 28.743 26.4117 28.6479 26.8892C28.5527 27.3666 28.3181 27.8051 27.9737 28.1492C27.6293 28.4933 27.1906 28.7274 26.713 28.8221C26.2355 28.9168 25.7406 28.8678 25.291 28.6811C24.8414 28.4945 24.4572 28.1787 24.187 27.7737C23.9169 27.3687 23.773 26.8927 23.7734 26.4059C23.7741 25.7536 24.0336 25.1282 24.4951 24.6672C24.9565 24.2062 25.5821 23.9473 26.2344 23.9473ZM31.018 30.7441H35.0867V32.6191H35.143C35.7102 31.5457 37.093 30.4137 39.1578 30.4137C43.4563 30.4043 44.2531 33.2332 44.2531 36.9012V44.4012H40.0086V37.7566C40.0086 36.1746 39.9805 34.1379 37.8031 34.1379C35.6258 34.1379 35.2555 35.8629 35.2555 37.6535V44.4012H31.018V30.7441Z" fill="white"/>
</g>
<defs>
<clipPath id="clip0_5494_78615">
<rect width="30" height="30" fill="white" transform="translate(19.1758 19.3232)"/>
</clipPath>
</defs>
</svg>
