<svg width="80" height="80" viewBox="0 0 80 80" fill="none" xmlns="http://www.w3.org/2000/svg">
<mask id="mask0_5450_30417" style="mask-type:luminance" maskUnits="userSpaceOnUse" x="6" y="4" width="68" height="72">
<path d="M39.9985 6.66602L48.7535 13.0527L59.5919 13.0327L62.9202 23.346L71.7002 29.6993L68.3319 39.9993L71.7002 50.2993L62.9202 56.6527L59.5919 66.966L48.7535 66.946L39.9985 73.3327L31.2435 66.946L20.4052 66.966L17.0769 56.6527L8.29688 50.2993L11.6652 39.9993L8.29688 29.6993L17.0769 23.346L20.4052 13.0327L31.2435 13.0527L39.9985 6.66602Z" fill="white" stroke="white" stroke-width="4" stroke-linecap="round" stroke-linejoin="round"/>
<path d="M28.332 39.9993L36.6654 48.3327L53.332 31.666" stroke="black" stroke-width="4" stroke-linecap="round" stroke-linejoin="round"/>
</mask>
<g mask="url(#mask0_5450_30417)">
<path d="M0 0H80V80H0V0Z" fill="white"/>
</g>
</svg>
