<svg width="814" height="510" viewBox="0 0 814 510" fill="none" xmlns="http://www.w3.org/2000/svg">
<g clip-path="url(#clip0_6825_3501)">
<rect width="814" height="510" rx="8" fill="#3D8361"/>
<path d="M774.631 82.3704C802.996 110.736 820.673 144.388 826.34 175.848C832.008 207.31 825.662 236.529 806.061 256.129C786.46 275.73 757.241 282.077 725.779 276.409C694.319 270.741 660.667 253.064 632.302 224.699C603.936 196.334 586.26 162.681 580.592 131.222C574.924 99.7594 581.271 70.541 600.871 50.9401C620.472 31.3392 649.691 24.9927 681.153 30.6606C712.613 36.3282 746.265 54.0051 774.631 82.3704Z" stroke="#C3D9CE"/>
<path d="M791.666 65.3362C820.031 93.7015 837.708 127.354 843.375 158.814C849.043 190.276 842.697 219.494 823.096 239.095C803.495 258.696 774.277 265.043 742.814 259.375C711.355 253.707 677.702 236.03 649.337 207.665C620.972 179.3 603.295 145.647 597.627 114.187C591.959 82.7253 598.306 53.5068 617.907 33.9059C637.508 14.3051 666.726 7.95853 698.188 13.6265C729.648 19.294 763.3 36.9709 791.666 65.3362Z" stroke="#C3D9CE"/>
<path d="M808.701 48.301C837.066 76.6663 854.743 110.319 860.411 141.779C866.078 173.241 859.732 202.459 840.131 222.06C820.53 241.661 791.312 248.007 759.85 242.34C728.39 236.672 694.737 218.995 666.372 190.63C638.007 162.265 620.33 128.612 614.662 97.1522C608.994 65.6901 615.341 36.4716 634.942 16.8708C654.543 -2.7301 683.761 -9.07663 715.223 -3.4087C746.683 2.25884 780.336 19.9357 808.701 48.301Z" stroke="#C3D9CE"/>
</g>
<defs>
<clipPath id="clip0_6825_3501">
<rect width="814" height="510" rx="8" fill="white"/>
</clipPath>
</defs>
</svg>
