<svg width="35" height="35" viewBox="0 0 35 35" fill="none" xmlns="http://www.w3.org/2000/svg">
<path d="M33.3851 23.3794C33.2758 22.9692 33.1391 22.5317 32.9203 22.0669C32.5648 21.3013 32.2094 20.8091 32.2094 20.8091L32.182 20.7817C32.0453 20.563 31.8539 20.3442 31.6625 20.1255C30.9789 19.1958 30.2406 18.3208 29.4476 17.4732L29.3109 17.3364C28.682 16.6255 28.0258 15.9419 27.3422 15.2583L27.2601 15.1763C26.5766 14.4927 25.8656 13.8091 25.1273 13.1528C24.8812 12.9067 24.5805 12.6607 24.2523 12.3599C23.8148 11.9771 23.3773 11.5942 22.9125 11.2114C22.7211 11.0474 22.5023 10.8833 22.2562 10.7192C22.1195 10.6099 22.0101 10.5005 21.8734 10.4185C21.8187 10.2817 21.6273 9.87159 21.2445 9.57081C20.7523 9.24268 20.1234 8.9419 20.1234 8.9419H20.0414C19.6859 8.66846 19.4945 8.5044 19.4945 8.5044H19.4672C19.1664 8.20362 18.8656 7.90284 18.5648 7.65674C18.3734 7.52003 18.182 7.38331 18.018 7.21924C17.6351 6.89112 16.8422 6.3169 16.0766 5.77003C15.393 5.2505 14.7367 4.813 14.1898 4.43018C12.6586 3.36378 11.7016 2.76221 11.7016 2.76221C7.38124 2.35206 5.38515 3.28175 4.7289 3.71925C4.59218 3.82862 4.56484 4.02003 4.67421 4.15675C4.81093 4.29346 5.02968 4.51221 5.30312 4.75831C4.97499 4.78565 4.64687 4.84034 4.31874 4.86768C4.12734 4.89503 4.01796 5.11378 4.12734 5.27784L4.94765 6.50831C3.99062 6.80909 2.18593 7.54737 1.14687 9.87159C1.11952 9.95362 1.11952 10.063 1.17421 10.145C1.39296 10.4458 1.96718 11.3208 2.95155 12.606C2.65077 13.5903 2.5414 14.4107 2.48671 14.6841C2.48671 14.7114 2.51405 14.8482 2.5414 14.8755C6.31484 19.3052 8.85781 21.9575 8.85781 21.9575L9.18593 22.2857V22.4497C9.18593 22.4497 9.34999 22.7778 9.56874 22.9966C9.76015 23.188 10.143 23.4067 10.2797 23.4614C10.5258 23.7075 10.7172 23.8716 10.7992 23.981C13.2875 26.606 16.2133 28.7661 18.8656 31.2271C18.975 31.3091 19.2484 31.5825 19.4125 31.5005C19.5492 31.4185 19.5492 31.145 19.5492 31.0357C19.5492 30.6255 19.6586 29.9966 19.8773 29.2857C20.8617 30.188 22.6117 31.5278 24.4711 31.9927C25.7016 32.2935 26.7953 32.2661 27.5336 32.1841C28.1898 32.0474 29.7484 31.6372 31.143 30.27C31.4437 29.9966 32.182 29.2036 32.7016 27.9732C33.7953 26.4692 33.7406 24.7466 33.3851 23.3794Z" fill="#A1887F"/>
<path d="M32.8125 23.8164L20.5898 10.6094C20.5898 10.6094 16.1602 11.293 14.3281 12.6055C12.4961 13.918 11.8125 17.5 11.8125 17.5C11.8125 17.5 20.8633 28.6836 23.7617 30.4062C26.6602 32.1289 29.832 30.4883 30.5977 29.832C31.3906 29.2031 33.4961 26.0586 32.8125 23.8164Z" fill="#455A64"/>
<path d="M29.0391 24.2252C29.0391 24.2252 30.4609 25.2643 30.0781 26.6862C29.6953 28.108 28.3828 28.8737 28.3828 28.8737L23.7617 24.444C23.7617 24.444 27.6719 23.0494 29.0391 24.2252Z" fill="#78909C"/>
<path d="M25.2927 30.4336C25.2927 30.4336 22.8044 29.2852 23.6794 26.6875C24.4724 24.3359 27.5622 23.8711 29.0388 24.2266L22.9684 18.4297C22.9684 18.4297 18.238 21 18.5114 22.9687C18.7849 24.9375 22.5856 30.2148 25.2927 30.4336Z" fill="#B0BEC5"/>
<path d="M27.5078 32.2658C26.7695 32.3478 25.6758 32.4025 24.4453 32.0744C21.9844 31.4455 19.7148 29.3126 19.168 28.6564L20.5898 26.6876C20.9727 27.2345 21.5195 28.0001 22.3125 28.8205C23.2969 29.8322 23.9805 30.5705 24.9102 30.9533C26.8242 31.7462 29.4766 30.9259 30.9805 29.3947C33.3047 27.0431 32.7031 23.215 33.0312 23.2423C33.25 23.2697 33.6055 25.2384 32.9766 27.2619C32.457 28.9845 31.4453 30.0236 31.1172 30.3517C29.7227 31.7189 28.1641 32.1291 27.5078 32.2658Z" fill="#78909C"/>
<path d="M32.5119 27.3967C32.4299 27.6975 32.2658 28.135 31.965 28.6272C30.5158 31.1155 27.6994 31.6077 27.5353 31.635C26.9611 31.7171 25.2658 31.9085 23.4885 30.9514C22.1213 30.2132 21.383 29.1194 21.0822 28.6272C20.8088 27.971 20.3713 26.5764 20.8635 25.0725C21.6291 22.7483 24.3088 21.135 27.4807 21.2717C26.8518 21.4085 25.8947 21.7092 24.9377 22.4202C24.6096 22.6663 21.4924 24.9905 22.2033 27.6702C22.7228 29.6389 25.0471 30.76 26.8791 30.76C29.6135 30.76 32.3478 28.3538 32.8674 24.7991L32.5119 27.3967Z" fill="#78909C"/>
<path d="M32.6758 28.0554C34.6172 23.2976 29.2852 20.5906 26.6875 21.4109C24.9922 21.9304 23.625 22.8054 22.5859 23.9265C22.4219 24.1179 21.7383 24.8562 21.1641 25.9773C20.4805 27.2898 19.4961 29.9968 19.5234 31.0906C19.5234 31.1726 19.5508 31.4734 19.3867 31.5554C19.2227 31.6374 18.9219 31.364 18.8398 31.282C16.1875 28.821 13.2617 26.6609 10.7734 24.0359C10.6367 23.8992 10.3359 23.6257 9.95313 23.2156C9.54297 22.7781 9.21484 22.3679 8.83203 21.9851C8.83203 21.9851 6.28906 19.3328 2.51562 14.9031C2.48828 14.8484 2.46094 14.739 2.46094 14.7117C2.59766 13.782 3.44531 7.52025 9.16016 7.08275C15.3398 6.61791 18.3203 8.58666 18.3203 8.58666L32.1836 20.8367C32.2109 20.8367 35.0273 24.7195 32.6758 28.0554Z" fill="#B0BEC5"/>
<path d="M5.76796 6.45312C5.76796 6.45312 2.67812 6.50781 1.14687 9.89844C1.11952 9.98047 1.11952 10.0898 1.17421 10.1719C1.96718 11.2656 7.29921 19.4961 18.182 26.9336C18.182 26.9336 19.768 22.6406 22.5844 21.1367L5.76796 6.45312Z" fill="#ECEFF1"/>
<path d="M8.91406 11.2109C8.91406 11.2109 7.60156 12.1953 6.91797 12.8789C6.91797 12.8789 5.00391 10.8828 4.45703 9.51562C4.45703 9.51562 5.60547 8.39453 6.91797 8.36719L8.91406 11.2109ZM15.4766 18.9219L13.7539 20.5078C13.7539 20.5078 15.0938 21.9297 17.0898 23.0508L18.3203 21.082L15.4766 18.9219ZM10.0078 13.1523C10.0078 13.1523 8.91406 13.6172 8.20313 14.7383C8.20313 14.7383 10.0352 17.582 12.4141 19.1406C12.4141 19.1406 13.6445 17.6367 14.3281 17.2812L10.0078 13.1523Z" fill="#B0BEC5"/>
<path d="M12.438 3.91016C9.73095 4.23828 7.05126 4.59375 4.37158 4.92188C4.18017 4.94922 4.07079 5.16797 4.18017 5.33203C5.41064 7.24609 6.83251 9.21484 8.41845 11.2109C12.6567 16.5156 17.0591 20.6445 21.0513 23.8164C21.4888 23.3516 22.145 22.668 23.102 22.0391C24.0317 21.4102 25.727 20.2891 28.0239 20.3984C29.3911 20.4531 30.4028 20.918 30.813 21.1641C32.0434 21.793 33.0278 22.9414 33.3833 23.4062C33.1919 22.5859 32.8091 21.7383 32.1802 20.8086C31.6606 20.0156 30.6763 19.168 30.1841 18.7578C28.3794 17.2266 26.8481 15.3945 24.9888 13.9453C21.9263 11.5391 17.7153 8.12109 12.438 3.91016Z" fill="#CFD8DC"/>
<path d="M4.75499 3.74659C5.41124 3.30909 7.40733 2.3794 11.7276 2.78956C11.7276 2.78956 14.7355 4.70362 18.5909 7.68409C19.1925 8.14893 19.7394 8.85987 20.3956 9.3794C21.0792 9.92628 22.255 10.6372 22.9659 11.2388C26.2472 14.0005 29.2003 16.8989 31.6886 20.1802C31.6886 20.1802 28.9542 18.7583 25.3722 20.0161C23.1026 20.8091 21.2706 22.5591 21.2706 22.5591C21.2706 22.5591 16.7042 17.5825 14.0519 14.2739C10.3331 9.65284 5.76671 5.19581 4.7003 4.18409C4.59093 4.04737 4.61827 3.85596 4.75499 3.74659Z" fill="#ECEFF1"/>
<path d="M25.0195 13.0173C25.0195 13.0173 23.3242 12.6892 21.7383 13.1814L16.8438 8.80641C16.8438 8.80641 17.8828 8.28688 19.3867 8.36891C19.3867 8.39626 23.2422 11.3494 25.0195 13.0173ZM15.9141 9.02516L20.8086 13.4822C20.8086 13.4822 19.332 13.6736 17.582 15.0681L13.3984 9.87282C13.3984 9.87282 14.6836 9.02516 15.9141 9.02516ZM29.3125 17.3103C29.3125 17.3103 25.2109 15.8611 20.5078 19.3064C20.5078 19.3064 19.25 17.9666 19.0039 17.447C19.0039 17.447 20.3984 15.9158 23.1328 15.0408C25.293 14.3572 27.1523 15.0134 27.1523 15.0134L29.3125 17.3103ZM17.8828 7.1111C17.8828 7.1111 15.0664 6.72829 12.25 8.12282L8.55859 4.81423C8.55859 4.81423 10.9375 3.74782 14.0273 4.29469C14.0547 4.32204 16.9805 6.40016 17.8828 7.1111Z" fill="#B0BEC5"/>
<path d="M21.0547 23.8178C21.0547 23.8178 23.9258 20.1538 28.0273 20.3178C31.1172 20.4546 32.7305 22.0678 33.0859 22.5053C33.25 22.8608 33.7148 24.0639 33.6055 25.5952C33.4961 27.2358 32.6211 28.0288 32.6484 28.1108C32.6484 28.1108 33.3594 26.9897 33.3594 25.2671C33.3594 24.1733 32.8398 22.8335 32.6211 22.6694C31.7461 21.9038 30.1055 20.7827 28 20.7827C24.6367 20.7827 23.0781 22.5053 21.5742 23.7632L21.0547 23.8178Z" fill="#546E7A"/>
<path d="M21.0547 23.8164L20.2891 23.2148L20.1797 23.3789C20.1797 23.3789 20.8086 24.0352 21.0547 24.1445C21.3008 24.2539 21.6016 23.7891 21.6016 23.7891L21.0547 23.8164Z" fill="#546E7A"/>
<path d="M20.4258 23.5977C20.4258 23.5977 19.3594 24.7734 18.2656 26.9336H18.1562C18.1562 26.9336 18.9219 24.8281 20.1523 23.3516L20.4258 23.5977Z" fill="#546E7A"/>
<path d="M21.957 10.4727C21.957 10.4727 21.793 9.92578 21.3008 9.57031C20.8086 9.21484 20.1797 8.94141 20.1797 8.94141C20.1797 8.94141 15.0937 9.40625 12.25 12.1133C10.3086 13.9727 9.13281 17.6094 9.13281 22.4492C9.13281 22.4492 9.29687 22.7773 9.51562 22.9961C9.73437 23.2148 10.2812 23.5156 10.2812 23.5156C10.2812 23.5156 10.2266 16.9805 13.2891 13.8359C15.6133 11.5391 19.25 10.6094 21.957 10.4727Z" fill="#8D6E63"/>
<path d="M18.4865 9.81556C18.4865 9.81556 15.0412 10.4445 13.1271 12.0577C11.2131 13.671 10.3928 16.0226 10.2287 16.8429C10.0373 17.6632 10.5568 17.7726 10.8849 17.1984C11.2404 16.6242 11.8146 14.1906 13.5373 12.796C15.342 11.3468 16.5724 11.1554 18.2951 10.6359C20.0451 10.089 19.1428 9.67884 18.4865 9.81556Z" fill="#A1887F"/>
</svg>
