<svg width="814" height="510" viewBox="0 0 814 510" fill="none" xmlns="http://www.w3.org/2000/svg">
<g clip-path="url(#clip0_6825_3501)">
<rect width="814" height="510" rx="8" fill="#3D8361"/>
<rect x="318" y="405" width="177" height="51" rx="8" fill="white"/>
<path d="M355.9 437.1C354.967 437.113 354.193 436.973 353.58 436.68C352.967 436.373 352.487 435.913 352.14 435.3C351.793 434.687 351.547 433.907 351.4 432.96C351.253 432.013 351.18 430.893 351.18 429.6C351.18 428.36 351.253 427.273 351.4 426.34C351.56 425.407 351.827 424.633 352.2 424.02C352.573 423.393 353.08 422.927 353.72 422.62C354.373 422.313 355.187 422.16 356.16 422.16C356.68 422.16 357.22 422.18 357.78 422.22C358.34 422.26 358.887 422.32 359.42 422.4C359.953 422.48 360.447 422.573 360.9 422.68V423.88C360.633 423.84 360.26 423.8 359.78 423.76C359.3 423.707 358.76 423.667 358.16 423.64C357.573 423.613 356.987 423.6 356.4 423.6C355.44 423.6 354.693 423.8 354.16 424.2C353.64 424.587 353.273 425.227 353.06 426.12C352.86 427 352.76 428.167 352.76 429.62C352.76 430.793 352.813 431.767 352.92 432.54C353.04 433.313 353.233 433.927 353.5 434.38C353.767 434.833 354.127 435.16 354.58 435.36C355.047 435.547 355.633 435.64 356.34 435.64C356.967 435.64 357.613 435.56 358.28 435.4C358.947 435.24 359.513 435.067 359.98 434.88V430.54H356.42V429.36C356.673 429.32 356.98 429.287 357.34 429.26C357.7 429.233 358.08 429.213 358.48 429.2C358.893 429.173 359.307 429.16 359.72 429.16C360.067 429.16 360.393 429.167 360.7 429.18C361.007 429.18 361.273 429.2 361.5 429.24V437H360.34L360.1 435.96C359.62 436.2 359.007 436.447 358.26 436.7C357.527 436.953 356.74 437.087 355.9 437.1ZM368.826 437.12C368.053 437.12 367.373 437.04 366.786 436.88C366.213 436.72 365.733 436.44 365.346 436.04C364.96 435.64 364.673 435.087 364.486 434.38C364.3 433.66 364.206 432.747 364.206 431.64C364.206 430.52 364.3 429.607 364.486 428.9C364.673 428.18 364.96 427.627 365.346 427.24C365.733 426.84 366.213 426.567 366.786 426.42C367.373 426.26 368.053 426.18 368.826 426.18C369.6 426.18 370.273 426.26 370.846 426.42C371.433 426.58 371.92 426.86 372.306 427.26C372.693 427.647 372.98 428.2 373.166 428.92C373.366 429.627 373.466 430.533 373.466 431.64C373.466 432.76 373.366 433.68 373.166 434.4C372.98 435.107 372.693 435.66 372.306 436.06C371.933 436.447 371.453 436.72 370.866 436.88C370.28 437.04 369.6 437.12 368.826 437.12ZM368.826 435.82C369.32 435.82 369.753 435.773 370.126 435.68C370.513 435.587 370.833 435.4 371.086 435.12C371.34 434.84 371.533 434.42 371.666 433.86C371.8 433.3 371.866 432.56 371.866 431.64C371.866 430.707 371.8 429.967 371.666 429.42C371.533 428.873 371.34 428.46 371.086 428.18C370.833 427.9 370.513 427.713 370.126 427.62C369.753 427.527 369.32 427.48 368.826 427.48C368.32 427.48 367.88 427.527 367.506 427.62C367.133 427.713 366.82 427.9 366.566 428.18C366.313 428.46 366.12 428.873 365.986 429.42C365.853 429.967 365.786 430.707 365.786 431.64C365.786 432.56 365.853 433.3 365.986 433.86C366.12 434.42 366.313 434.84 366.566 435.12C366.82 435.4 367.133 435.587 367.506 435.68C367.88 435.773 368.32 435.82 368.826 435.82ZM384.86 437V423.72H380.32V422.28H391V423.72H386.46V437H384.86ZM396.092 437.12C395.319 437.12 394.639 437.04 394.052 436.88C393.479 436.72 392.999 436.44 392.612 436.04C392.225 435.64 391.939 435.087 391.752 434.38C391.565 433.66 391.472 432.747 391.472 431.64C391.472 430.52 391.565 429.607 391.752 428.9C391.939 428.18 392.225 427.627 392.612 427.24C392.999 426.84 393.479 426.567 394.052 426.42C394.639 426.26 395.319 426.18 396.092 426.18C396.865 426.18 397.539 426.26 398.112 426.42C398.699 426.58 399.185 426.86 399.572 427.26C399.959 427.647 400.245 428.2 400.432 428.92C400.632 429.627 400.732 430.533 400.732 431.64C400.732 432.76 400.632 433.68 400.432 434.4C400.245 435.107 399.959 435.66 399.572 436.06C399.199 436.447 398.719 436.72 398.132 436.88C397.545 437.04 396.865 437.12 396.092 437.12ZM396.092 435.82C396.585 435.82 397.019 435.773 397.392 435.68C397.779 435.587 398.099 435.4 398.352 435.12C398.605 434.84 398.799 434.42 398.932 433.86C399.065 433.3 399.132 432.56 399.132 431.64C399.132 430.707 399.065 429.967 398.932 429.42C398.799 428.873 398.605 428.46 398.352 428.18C398.099 427.9 397.779 427.713 397.392 427.62C397.019 427.527 396.585 427.48 396.092 427.48C395.585 427.48 395.145 427.527 394.772 427.62C394.399 427.713 394.085 427.9 393.832 428.18C393.579 428.46 393.385 428.873 393.252 429.42C393.119 429.967 393.052 430.707 393.052 431.64C393.052 432.56 393.119 433.3 393.252 433.86C393.385 434.42 393.579 434.84 393.832 435.12C394.085 435.4 394.399 435.587 394.772 435.68C395.145 435.773 395.585 435.82 396.092 435.82ZM408.806 437V422.28H410.406V429.1H417.766V422.28H419.346V437H417.766V430.54H410.406V437H408.806ZM426.658 437.12C425.885 437.12 425.205 437.04 424.618 436.88C424.045 436.72 423.565 436.44 423.178 436.04C422.792 435.64 422.505 435.087 422.318 434.38C422.132 433.66 422.038 432.747 422.038 431.64C422.038 430.52 422.132 429.607 422.318 428.9C422.505 428.18 422.792 427.627 423.178 427.24C423.565 426.84 424.045 426.567 424.618 426.42C425.205 426.26 425.885 426.18 426.658 426.18C427.432 426.18 428.105 426.26 428.678 426.42C429.265 426.58 429.752 426.86 430.138 427.26C430.525 427.647 430.812 428.2 430.998 428.92C431.198 429.627 431.298 430.533 431.298 431.64C431.298 432.76 431.198 433.68 430.998 434.4C430.812 435.107 430.525 435.66 430.138 436.06C429.765 436.447 429.285 436.72 428.698 436.88C428.112 437.04 427.432 437.12 426.658 437.12ZM426.658 435.82C427.152 435.82 427.585 435.773 427.958 435.68C428.345 435.587 428.665 435.4 428.918 435.12C429.172 434.84 429.365 434.42 429.498 433.86C429.632 433.3 429.698 432.56 429.698 431.64C429.698 430.707 429.632 429.967 429.498 429.42C429.365 428.873 429.172 428.46 428.918 428.18C428.665 427.9 428.345 427.713 427.958 427.62C427.585 427.527 427.152 427.48 426.658 427.48C426.152 427.48 425.712 427.527 425.338 427.62C424.965 427.713 424.652 427.9 424.398 428.18C424.145 428.46 423.952 428.873 423.818 429.42C423.685 429.967 423.618 430.707 423.618 431.64C423.618 432.56 423.685 433.3 423.818 433.86C423.952 434.42 424.145 434.84 424.398 435.12C424.652 435.4 424.965 435.587 425.338 435.68C425.712 435.773 426.152 435.82 426.658 435.82ZM433.961 437V426.32H435.201L435.541 427.5C436.075 427.127 436.668 426.807 437.321 426.54C437.988 426.273 438.728 426.14 439.541 426.14C440.208 426.14 440.775 426.293 441.241 426.6C441.721 426.893 442.081 427.267 442.321 427.72C442.655 427.48 443.055 427.24 443.521 427C444.001 426.76 444.508 426.56 445.041 426.4C445.588 426.227 446.115 426.14 446.621 426.14C447.395 426.14 448.028 426.307 448.521 426.64C449.015 426.96 449.375 427.4 449.601 427.96C449.841 428.507 449.961 429.12 449.961 429.8V437H448.381V429.92C448.381 429.467 448.288 429.067 448.101 428.72C447.928 428.36 447.675 428.08 447.341 427.88C447.008 427.68 446.601 427.58 446.121 427.58C445.521 427.58 444.908 427.693 444.281 427.92C443.655 428.147 443.075 428.42 442.541 428.74C442.608 428.94 442.655 429.14 442.681 429.34C442.721 429.527 442.741 429.727 442.741 429.94V437H441.161V429.92C441.161 429.467 441.068 429.067 440.881 428.72C440.708 428.36 440.455 428.08 440.121 427.88C439.801 427.68 439.401 427.58 438.921 427.58C438.481 427.58 438.068 427.627 437.681 427.72C437.308 427.8 436.948 427.92 436.601 428.08C436.268 428.227 435.915 428.407 435.541 428.62V437H433.961ZM457.006 437.12C455.886 437.12 455 436.953 454.346 436.62C453.706 436.287 453.246 435.72 452.966 434.92C452.686 434.12 452.546 433.027 452.546 431.64C452.546 430.227 452.686 429.127 452.966 428.34C453.26 427.54 453.733 426.98 454.386 426.66C455.04 426.34 455.92 426.18 457.026 426.18C457.973 426.18 458.74 426.287 459.326 426.5C459.926 426.713 460.366 427.08 460.646 427.6C460.94 428.107 461.086 428.813 461.086 429.72C461.086 430.347 460.96 430.853 460.706 431.24C460.466 431.613 460.113 431.887 459.646 432.06C459.193 432.22 458.653 432.3 458.026 432.3H454.126C454.14 433.167 454.233 433.867 454.406 434.4C454.58 434.92 454.893 435.3 455.346 435.54C455.813 435.767 456.493 435.88 457.386 435.88H460.826V436.84C460.213 436.92 459.613 436.987 459.026 437.04C458.44 437.093 457.766 437.12 457.006 437.12ZM454.106 431.26H457.906C458.506 431.26 458.946 431.153 459.226 430.94C459.52 430.713 459.666 430.313 459.666 429.74C459.666 429.127 459.573 428.653 459.386 428.32C459.213 427.973 458.933 427.733 458.546 427.6C458.173 427.453 457.666 427.38 457.026 427.38C456.28 427.38 455.693 427.493 455.266 427.72C454.84 427.933 454.54 428.32 454.366 428.88C454.193 429.44 454.106 430.233 454.106 431.26Z" fill="#3D8361"/>
<path d="M774.631 82.3704C802.996 110.736 820.673 144.388 826.34 175.848C832.008 207.31 825.662 236.529 806.061 256.129C786.46 275.73 757.241 282.077 725.779 276.409C694.319 270.741 660.667 253.064 632.302 224.699C603.936 196.334 586.26 162.681 580.592 131.222C574.924 99.7594 581.271 70.541 600.871 50.9401C620.472 31.3392 649.691 24.9927 681.153 30.6606C712.613 36.3282 746.265 54.0051 774.631 82.3704Z" stroke="#C3D9CE"/>
<path d="M791.666 65.3362C820.031 93.7015 837.708 127.354 843.375 158.814C849.043 190.276 842.697 219.494 823.096 239.095C803.495 258.696 774.277 265.043 742.814 259.375C711.355 253.707 677.702 236.03 649.337 207.665C620.972 179.3 603.295 145.647 597.627 114.187C591.959 82.7253 598.306 53.5068 617.907 33.9059C637.508 14.3051 666.726 7.95853 698.188 13.6265C729.648 19.294 763.3 36.9709 791.666 65.3362Z" stroke="#C3D9CE"/>
<path d="M808.701 48.301C837.066 76.6663 854.743 110.319 860.411 141.779C866.078 173.241 859.732 202.459 840.131 222.06C820.53 241.661 791.312 248.007 759.85 242.34C728.39 236.672 694.737 218.995 666.372 190.63C638.007 162.265 620.33 128.612 614.662 97.1522C608.994 65.6901 615.341 36.4716 634.942 16.8708C654.543 -2.7301 683.761 -9.07663 715.223 -3.4087C746.683 2.25884 780.336 19.9357 808.701 48.301Z" stroke="#C3D9CE"/>
</g>
<defs>
<clipPath id="clip0_6825_3501">
<rect width="814" height="510" rx="8" fill="white"/>
</clipPath>
</defs>
</svg>
