<svg width="375" height="1943" viewBox="0 0 375 1943" fill="none" xmlns="http://www.w3.org/2000/svg">
<g clip-path="url(#clip0_6513_31441)">
<rect width="375" height="1943" fill="#FAF9F7"/>
<path d="M24.5 895L25.605 916.979L46.8498 911.238L26.288 919.081L38.313 937.512L24.5 920.38L10.687 937.512L22.712 919.081L2.15017 911.238L23.395 916.979L24.5 895Z" fill="black"/>
<path d="M340 1532L341.082 1553.51L361.874 1547.89L341.75 1555.57L353.519 1573.61L340 1556.84L326.481 1573.61L338.25 1555.57L318.126 1547.89L338.918 1553.51L340 1532Z" fill="black"/>
<path d="M298 231L298.94 249.706L317.021 244.82L299.522 251.494L309.756 267.18L298 252.6L286.244 267.18L296.478 251.494L278.979 244.82L297.06 249.706L298 231Z" fill="black"/>
<path d="M238.797 1685.95C265.69 1712.84 282.457 1744.75 287.834 1774.6C293.211 1804.44 287.195 1832.2 268.565 1850.83C249.935 1869.46 222.179 1875.48 192.332 1870.1C162.486 1864.72 130.573 1847.96 103.68 1821.06C76.7868 1794.17 60.0201 1762.26 54.6433 1732.41C49.2663 1702.56 55.2816 1674.81 73.9121 1656.18C92.5426 1637.55 120.298 1631.53 150.145 1636.91C179.991 1642.29 211.904 1659.05 238.797 1685.95Z" stroke="#3D8361" stroke-width="0.5"/>
<path d="M254.93 1669.81C281.823 1696.71 298.59 1728.62 303.967 1758.46C309.344 1788.31 303.328 1816.07 284.698 1834.7C266.067 1853.33 238.312 1859.34 208.465 1853.97C178.619 1848.59 146.706 1831.82 119.813 1804.93C92.9196 1778.04 76.1529 1746.12 70.7761 1716.28C65.3991 1686.43 71.4144 1658.68 90.0449 1640.04C108.675 1621.41 136.431 1615.4 166.278 1620.78C196.124 1626.15 228.037 1642.92 254.93 1669.81Z" stroke="#3D8361" stroke-width="0.5"/>
<path d="M271.063 1653.68C297.956 1680.57 314.723 1712.49 320.099 1742.33C325.476 1772.18 319.461 1799.93 300.831 1818.57C282.2 1837.2 254.445 1843.21 224.598 1837.83C194.751 1832.46 162.839 1815.69 135.946 1788.8C109.052 1761.9 92.2857 1729.99 86.9089 1700.15C81.5319 1670.3 87.5473 1642.54 106.178 1623.91C124.808 1605.28 152.563 1599.27 182.411 1604.64C212.257 1610.02 244.169 1626.79 271.063 1653.68Z" stroke="#3D8361" stroke-width="0.5"/>
<g opacity="0.5">
<g filter="url(#filter0_f_6513_31441)">
<ellipse cx="37.8818" cy="21.1508" rx="89.8818" ry="47.4204" fill="#E4DA7E"/>
</g>
<g filter="url(#filter1_f_6513_31441)">
<ellipse cx="56.4792" cy="-19.5796" rx="88.0221" ry="47.4204" fill="#48985C"/>
</g>
</g>
</g>
<defs>
<filter id="filter0_f_6513_31441" x="-103.577" y="-77.8468" width="282.916" height="197.994" filterUnits="userSpaceOnUse" color-interpolation-filters="sRGB">
<feFlood flood-opacity="0" result="BackgroundImageFix"/>
<feBlend mode="normal" in="SourceGraphic" in2="BackgroundImageFix" result="shape"/>
<feGaussianBlur stdDeviation="25.7886" result="effect1_foregroundBlur_6513_31441"/>
</filter>
<filter id="filter1_f_6513_31441" x="-83.1203" y="-118.577" width="279.198" height="197.994" filterUnits="userSpaceOnUse" color-interpolation-filters="sRGB">
<feFlood flood-opacity="0" result="BackgroundImageFix"/>
<feBlend mode="normal" in="SourceGraphic" in2="BackgroundImageFix" result="shape"/>
<feGaussianBlur stdDeviation="25.7886" result="effect1_foregroundBlur_6513_31441"/>
</filter>
<clipPath id="clip0_6513_31441">
<rect width="375" height="1943" fill="white"/>
</clipPath>
</defs>
</svg>
