<svg width="70" height="69" viewBox="0 0 70 69" fill="none" xmlns="http://www.w3.org/2000/svg">
<rect width="68.4706" height="68.4706" transform="translate(0.707031 0.323242)" fill="#2AABEE"/>
<g clip-path="url(#clip0_5494_78594)">
<path d="M35.3828 11.3232C29.1516 11.3232 23.1702 13.8007 18.7676 18.2062C14.3605 22.6135 11.8841 28.5905 11.8828 34.8232C11.8828 41.0533 14.3613 47.0348 18.7676 51.4403C23.1702 55.8458 29.1516 58.3232 35.3828 58.3232C41.614 58.3232 47.5955 55.8458 51.998 51.4403C56.4043 47.0348 58.8828 41.0533 58.8828 34.8232C58.8828 28.5932 56.4043 22.6117 51.998 18.2062C47.5955 13.8007 41.614 11.3232 35.3828 11.3232Z" fill="url(#paint0_linear_5494_78594)"/>
<path d="M22.5197 34.5748C29.3714 31.5903 33.9393 29.6227 36.2232 28.6719C42.7518 25.9573 44.1067 25.4858 44.9916 25.4699C45.1862 25.4667 45.6195 25.5148 45.9022 25.7434C46.1372 25.9362 46.2033 26.1969 46.2364 26.3799C46.2657 26.5628 46.3061 26.9796 46.2731 27.3049C45.9206 31.0208 44.3894 40.0382 43.611 44.2003C43.2842 45.9613 42.6343 46.5518 42.0064 46.6094C40.6404 46.735 39.605 45.7076 38.2831 44.8414C36.2158 43.4854 35.0482 42.6416 33.0396 41.3186C30.719 39.7896 32.2245 38.9491 33.5464 37.5759C33.8915 37.2164 39.9061 31.7471 40.0199 31.251C40.0346 31.189 40.0493 30.9577 39.9097 30.8358C39.7739 30.7135 39.5719 30.7553 39.425 30.7884C39.2157 30.8354 35.9147 33.0194 29.511 37.3401C28.5746 37.9842 27.7264 38.2981 26.9627 38.2816C26.1255 38.2636 24.5099 37.8072 23.3092 37.4172C21.8404 36.9388 20.6691 36.6858 20.7719 35.8732C20.8233 35.4502 21.4071 35.0173 22.5197 34.5748Z" fill="white"/>
</g>
<defs>
<linearGradient id="paint0_linear_5494_78594" x1="2361.88" y1="11.3232" x2="2361.88" y2="4711.32" gradientUnits="userSpaceOnUse">
<stop stop-color="#2AABEE"/>
<stop offset="1" stop-color="#229ED9"/>
</linearGradient>
<clipPath id="clip0_5494_78594">
<rect width="47" height="47" fill="white" transform="translate(11.8828 11.3232)"/>
</clipPath>
</defs>
</svg>
