<svg width="35" height="35" viewBox="0 0 35 35" fill="none" xmlns="http://www.w3.org/2000/svg">
<path d="M10.1914 23.2218C10.0339 21.4879 9.89969 17.6802 9.85156 16.0031C9.94635 15.6152 10.483 15.3396 10.7266 15.2448C14.3534 15.2214 21.928 15.166 23.2843 15.166C24.6332 15.166 25.097 15.9302 25.1611 16.3254C25.0664 16.9087 24.8768 18.8323 24.8768 21.8743C24.8768 25.6733 21.2353 32.0827 17.553 32.0827C13.8722 32.0827 10.3955 25.3889 10.1914 23.2218Z" fill="url(#paint0_linear_5400_73163)"/>
<path d="M14.6026 17.2391C13.3601 17.1739 12.1254 17.0427 10.8984 16.8453C11.5751 17.2303 13.8924 17.9872 17.7555 17.9872C22.587 17.9872 24.5747 17.0568 24.5747 16.4895C24.5747 16.0243 24.1255 15.756 23.8966 15.6699L23.2739 15.8041C23.3219 15.8733 23.3464 15.9561 23.3439 16.0403C22.6978 17.3572 19.6076 17.538 17.7482 17.538C16.2739 17.538 15.0357 17.3412 14.5953 17.2391H14.6026Z" fill="url(#paint1_linear_5400_73163)"/>
<path d="M17.7293 17.3182C13.7408 17.3182 12.8585 16.3557 12.9124 15.8672H22.5301V16.048C22.5929 16.4666 21.7179 17.3168 17.7293 17.3168" fill="#26203A"/>
<path d="M17.7259 16.8215C15.1082 16.8215 14.5249 16.1915 14.573 15.875H20.8715V15.9858C20.9109 16.2629 20.3349 16.8215 17.7172 16.8215H17.7259Z" fill="#4470D1"/>
<path d="M9.87601 16.1586C9.87601 15.8815 10.2946 15.5198 10.5075 15.3711L11.1214 15.6073L10.8618 16.8207C10.537 16.7478 10.2181 16.6503 9.90809 16.529C9.88225 16.4098 9.87147 16.2878 9.87601 16.1659V16.1586Z" fill="#335CA7"/>
<path d="M10.4936 16.2608C10.4936 16.5612 10.7999 16.7974 10.9501 16.8762C11.7376 17.0103 13.5824 17.2787 14.6543 17.2626C12.6053 16.971 12.0541 16.1426 12.0453 15.7649L11.0289 15.6074C10.8553 15.6949 10.4936 15.9618 10.4936 16.2608Z" fill="#496BAC"/>
<path d="M13.0014 15.9537L11.9922 15.7656C12.0155 16.3562 12.9386 17.4923 16.3818 17.2867C13.8049 17.17 13.0568 16.349 12.9941 15.9465L13.0014 15.9537Z" fill="#9EA3B6"/>
<path d="M16.2547 17.2868H14.8984C20.2432 18.067 23.7986 16.7982 23.2693 15.7891L22.3636 15.9466C22.3709 17.208 18.2964 17.3655 16.2547 17.2868Z" fill="url(#paint2_linear_5400_73163)"/>
<path d="M21.7855 16.0264H13.6101C12.7511 16.0264 10.6934 15.7727 9.35467 14.7796C7.65863 13.5254 8.188 10.2631 8.37759 9.56164C8.56425 8.86602 10.3143 2.91602 17.4718 2.91602C24.638 2.91602 26.8532 9.37935 26.932 10.3579V10.3885C27.0822 11.6281 26.8736 12.8823 26.3326 14.0066C25.7332 15.3483 23.0922 15.9229 21.7826 16.025" fill="url(#paint3_linear_5400_73163)"/>
<path d="M20.3247 6.13867H14.8939C13.5377 6.13867 10.4883 6.45513 10.4883 9.39513C10.4883 12.3351 12.9791 15.3072 17.3862 15.3072C21.7904 15.3072 24.3541 12.6822 24.3541 9.39513C24.3541 6.76284 21.6737 6.12409 20.3262 6.14013" fill="#FFFFBA"/>
<path d="M20.2299 6.29H14.9712C13.6558 6.29 10.707 6.58896 10.707 9.44292C10.707 12.2808 13.1191 15.1494 17.376 15.1494C21.6402 15.1494 24.1237 12.6265 24.1237 9.43417C24.1237 6.88792 21.522 6.28125 20.2212 6.28125L20.2299 6.29Z" fill="url(#paint4_linear_5400_73163)"/>
<path d="M8.87458 8.54673C8.70833 8.57006 8.43271 9.38965 8.31458 9.79069C8.19132 10.483 8.12789 11.1846 8.125 11.8878C8.14104 12.598 8.25917 12.8182 8.31458 12.8342C8.62958 12.8342 8.87458 11.8878 8.94604 11.1951C9.02479 10.5096 9.0875 8.5161 8.87458 8.54673Z" fill="#C9D3E8"/>
<path d="M8.89701 8.90649C8.74826 8.92983 8.50325 9.6167 8.40117 9.94774C8.34575 10.2788 8.22763 11.0984 8.24367 11.6817C8.25971 12.265 8.35305 12.4546 8.40117 12.4692C8.68555 12.4692 8.897 11.6817 8.95242 11.1057C9.02388 10.5384 9.0793 8.88316 8.89701 8.90649Z" fill="#251F38"/>
<path d="M6.46094 8.40211C6.46094 11.3436 7.36802 12.2652 7.82448 12.3513C8.73156 12.3513 8.54198 10.7996 8.42385 7.85961C8.30573 4.91961 7.92802 3.31836 7.67573 3.31836C7.42344 3.31836 6.46969 4.72857 6.46969 8.40211H6.46094Z" fill="url(#paint5_linear_5400_73163)"/>
<path d="M8.03002 5.71484C7.22647 5.84901 6.65043 5.71484 6.58772 5.71484C6.49293 5.73818 6.53231 5.84026 6.55564 5.89568C6.63439 5.91901 6.85606 5.95984 7.22647 5.95984C7.69168 5.95984 7.98335 5.92776 8.03002 5.89568C8.0621 5.86505 8.04606 5.76151 8.03002 5.71484Z" fill="#FFFFBA"/>
<path d="M6.87854 11.2252C6.98063 10.9423 7.08271 10.5398 7.08271 10.044C7.08271 9.3425 6.71375 8.84521 6.46875 8.625C6.48333 9.80625 6.65833 10.6506 6.87854 11.2252Z" fill="url(#paint6_linear_5400_73163)"/>
<path d="M26.1192 8.54673C26.2913 8.57006 26.5684 9.38965 26.6865 9.79069C26.7652 10.2019 26.8907 11.1863 26.8761 11.8878C26.8513 12.598 26.7419 12.8182 26.6865 12.8342C26.37 12.8342 26.1177 11.8878 26.055 11.1951C25.9763 10.5096 25.9136 8.5161 26.1192 8.54673Z" fill="#C9D3E8"/>
<path d="M26.1032 8.90649C26.2534 8.92983 26.4969 9.6167 26.5917 9.94774C26.6559 10.2788 26.774 11.0984 26.7507 11.6817C26.7419 12.265 26.6398 12.4546 26.5932 12.4692C26.3161 12.4692 26.1032 11.6817 26.0405 11.1057C25.9778 10.5384 25.9223 8.88316 26.1032 8.90649Z" fill="#251F38"/>
<path d="M28.5327 8.40211C28.5327 11.3436 27.6256 12.2652 27.1764 12.3513C26.2693 12.3513 26.4516 10.7996 26.5785 7.85961C26.6952 4.91815 27.0743 3.31836 27.3252 3.31836C27.5789 3.31836 28.5327 4.72857 28.5327 8.40211Z" fill="url(#paint7_linear_5400_73163)"/>
<path d="M26.9709 5.71484C27.7744 5.84901 28.3504 5.71484 28.4131 5.71484C28.5079 5.73818 28.4686 5.84026 28.4365 5.89568C28.2197 5.94671 27.997 5.96829 27.7744 5.95984C27.3092 5.95984 27.0175 5.92776 26.9709 5.89568C26.9315 5.86505 26.9548 5.76151 26.9709 5.71484Z" fill="#FFFFBA"/>
<path d="M28.1135 11.2252C27.981 10.8456 27.9149 10.446 27.9181 10.044C27.9181 9.3425 28.2885 8.84521 28.532 8.625C28.5457 9.50943 28.4031 10.3894 28.1135 11.2252Z" fill="url(#paint8_linear_5400_73163)"/>
<path d="M20.0808 6.45514H15.1079C13.861 6.45514 11.0625 6.74681 11.0625 9.48264C11.0625 12.2243 13.3492 14.9849 17.3917 14.9849C21.4283 14.9849 23.785 12.5495 23.785 9.48264C23.785 7.03848 21.319 6.44785 20.0808 6.45514Z" fill="url(#paint9_linear_5400_73163)"/>
<path d="M23.1623 12.0371C21.4195 12.8011 19.5302 13.1725 17.6279 13.125C15.0277 13.125 13.1115 12.7079 11.9375 12.3448C12.954 13.8659 14.8148 14.9844 17.3917 14.9844C20.2135 14.9844 22.2085 13.8032 23.1623 12.0386" fill="#483D6F"/>
<path d="M13.5401 8.77244H12.2013C12.2825 8.38485 12.496 8.03758 12.8051 7.79013C13.1143 7.54269 13.4999 7.41049 13.8959 7.41619L13.5401 8.77244ZM15.5117 7.42494H14.0373L13.7311 8.74911H15.5103L15.5117 7.42494ZM12.1532 8.92265H13.5094L13.3826 9.4739H12.0117L12.1532 8.92265Z" fill="url(#paint10_linear_5400_73163)"/>
<path d="M14.8176 11.7842C15.7611 11.7842 16.5267 10.9792 16.5267 9.98758C16.5267 8.99445 15.7611 8.18945 14.8161 8.18945C13.8726 8.18945 13.1055 8.99445 13.1055 9.98758C13.1055 10.9792 13.8726 11.7842 14.8161 11.7842" fill="url(#paint11_linear_5400_73163)"/>
<path d="M20.5139 11.7842C21.4589 11.7842 22.2245 10.9792 22.2245 9.98758C22.2245 8.99445 21.4589 8.18945 20.5139 8.18945C19.5703 8.18945 18.8047 8.99445 18.8047 9.98758C18.8047 10.9792 19.5703 11.7842 20.5139 11.7842Z" fill="url(#paint12_linear_5400_73163)"/>
<path d="M12.4586 6.72289C12.0648 6.25039 11.5909 5.36664 11.3867 4.92622L11.6784 4.69727C11.709 4.99622 12.3405 6.10018 12.6628 6.61206C12.6161 6.65143 12.514 6.72289 12.4586 6.72289ZM22.3665 6.69081C22.8468 6.18136 23.2595 5.62234 23.6046 5.01372L23.2896 4.77602C23.2342 5.06768 22.5401 6.07685 22.1536 6.56539C22.2169 6.619 22.2889 6.66142 22.3665 6.69081Z" fill="#FFFFBA"/>
<path d="M9.85385 16.9805V17.1628C9.7751 18.0771 9.60156 19.9526 9.60156 20.1028C9.60156 20.253 9.95594 21.2213 10.1382 21.6953C10.2476 21.3876 10.4693 20.4892 10.4693 19.3619C10.4693 18.2346 10.0595 17.3115 9.85385 16.9805Z" fill="#28233E"/>
<path d="M6.57031 24.0428C6.57031 27.3299 7.6276 28.3624 8.14677 28.4717C9.65323 28.4717 10.1972 24.7749 10.2759 22.9301C10.4568 20.9526 10.5443 17.002 9.4724 17.002C8.13073 17.002 6.57031 19.9434 6.57031 24.0428Z" fill="url(#paint13_linear_5400_73163)"/>
<path d="M6.87109 24.6502C6.87109 25.8008 7.18609 26.0997 7.35234 26.1085C7.74609 26.1085 7.73734 25.0833 7.68339 24.5714C7.69068 23.8131 7.63526 22.3008 7.35234 22.3008C7.00526 22.3008 6.87109 23.2166 6.87109 24.6502Z" fill="#829FD1"/>
<path d="M8.32177 25.0116C7.28052 25.0116 6.71323 25.0904 6.50906 25.1298L6.46094 24.8935C6.68115 24.8541 7.26448 24.7754 8.32177 24.7754C9.23615 24.7754 9.74073 24.9023 10.0397 24.9723L10.1811 25.0116L10.1184 25.2479L9.97698 25.2085C9.43751 25.064 8.88009 24.9977 8.32177 25.0116Z" fill="#FFFFBA"/>
<path d="M28.2464 24.0428C28.2464 27.3299 27.1993 28.3624 26.6714 28.4717C25.1723 28.4717 24.621 24.7749 24.5423 22.9301C24.3687 20.9526 24.2827 17.002 25.3545 17.002C26.6948 17.002 28.2464 19.9434 28.2464 24.0428Z" fill="url(#paint14_linear_5400_73163)"/>
<path d="M27.956 24.6502C27.956 25.8008 27.6337 26.0997 27.4674 26.1085C27.081 26.1085 27.0883 25.0833 27.1364 24.5714C27.1364 23.8131 27.1918 22.3008 27.4674 22.3008C27.8218 22.3008 27.956 23.2166 27.956 24.6502Z" fill="#829FD1"/>
<path d="M26.4966 25.0116C27.5452 25.0116 28.1124 25.0904 28.3093 25.1298L28.3647 24.8935C28.1445 24.8541 27.5524 24.7754 26.4966 24.7754C25.5822 24.7754 25.0849 24.9023 24.7787 24.9723L24.6445 25.0116L24.6985 25.2479L24.8414 25.2085C25.1564 25.1298 25.6143 25.0116 26.4966 25.0116Z" fill="#FFFFBA"/>
<path d="M14.7042 19.8417L13.625 22.5061H14.255L15.3269 19.9598C15.3404 19.934 15.3607 19.9123 15.3856 19.8972C15.4106 19.882 15.4392 19.8739 15.4683 19.8738C15.4977 19.8741 15.5264 19.8824 15.5513 19.8978C15.5762 19.9132 15.5965 19.9352 15.6098 19.9613L16.619 22.5061H17.2665L16.2165 19.8505C16.1547 19.701 16.0499 19.5733 15.9154 19.4834C15.7809 19.3936 15.6228 19.3457 15.461 19.3459C15.2994 19.3425 15.1405 19.388 15.0052 19.4765C14.8698 19.5649 14.7644 19.6923 14.7027 19.8417M17.6894 19.3459H18.3369V22.5061H17.6894V19.3459ZM18.999 22.5221V21.9315H20.8904C21.1106 21.9315 21.2929 21.7565 21.2929 21.5523C21.2891 21.4512 21.2457 21.3557 21.172 21.2864C21.0983 21.2171 21.0003 21.1796 20.8992 21.1819H19.874C19.3533 21.1819 18.9275 20.7809 18.9275 20.2836C18.9275 19.7863 19.3533 19.3853 19.874 19.3853H21.6006V19.9453H19.9046C19.6917 19.9453 19.5108 20.11 19.5108 20.3157C19.5108 20.5125 19.6917 20.6773 19.9046 20.6773H20.8744C21.4183 20.6773 21.8515 21.0959 21.8515 21.6005C21.8481 21.7252 21.8201 21.8481 21.7691 21.962C21.7181 22.0759 21.6451 22.1786 21.5543 22.2642C21.4636 22.3499 21.3568 22.4167 21.2401 22.461C21.1234 22.5052 20.9991 22.526 20.8744 22.5221H18.999Z" fill="url(#paint15_linear_5400_73163)"/>
<defs>
<linearGradient id="paint0_linear_5400_73163" x1="25.1611" y1="17.2791" x2="12.0507" y2="27.4554" gradientUnits="userSpaceOnUse">
<stop stop-color="#89B9ED"/>
<stop offset="0.89" stop-color="#1B5CCF"/>
<stop offset="1" stop-color="#6095D0"/>
</linearGradient>
<linearGradient id="paint1_linear_5400_73163" x1="12.9634" y1="17.4666" x2="23.9126" y2="17.4666" gradientUnits="userSpaceOnUse">
<stop stop-color="#6192E0"/>
<stop offset="1" stop-color="#97C1EF"/>
</linearGradient>
<linearGradient id="paint2_linear_5400_73163" x1="15.6641" y1="17.6339" x2="23.0491" y2="16.877" gradientUnits="userSpaceOnUse">
<stop stop-color="#B9C5DE"/>
<stop offset="1" stop-color="#667AB0"/>
</linearGradient>
<linearGradient id="paint3_linear_5400_73163" x1="17.5607" y1="2.91602" x2="17.5607" y2="16.025" gradientUnits="userSpaceOnUse">
<stop stop-color="#72CDFF"/>
<stop offset="0.84" stop-color="#3856DC"/>
<stop offset="0.98" stop-color="#4A6DD8"/>
</linearGradient>
<linearGradient id="paint4_linear_5400_73163" x1="17.4227" y1="6.28125" x2="17.4227" y2="15.1494" gradientUnits="userSpaceOnUse">
<stop stop-color="#8091BF"/>
<stop offset="1" stop-color="#D2DBED"/>
</linearGradient>
<linearGradient id="paint5_linear_5400_73163" x1="7.49344" y1="3.31836" x2="7.49344" y2="12.3513" gradientUnits="userSpaceOnUse">
<stop stop-color="#72CDFF"/>
<stop offset="1" stop-color="#252B8C"/>
</linearGradient>
<linearGradient id="paint6_linear_5400_73163" x1="6.77646" y1="8.625" x2="6.77646" y2="11.2252" gradientUnits="userSpaceOnUse">
<stop stop-color="#32469F"/>
<stop offset="1" stop-color="#5EA3E0"/>
</linearGradient>
<linearGradient id="paint7_linear_5400_73163" x1="27.4987" y1="3.31836" x2="27.4987" y2="12.3513" gradientUnits="userSpaceOnUse">
<stop stop-color="#72CDFF"/>
<stop offset="1" stop-color="#252B8C"/>
</linearGradient>
<linearGradient id="paint8_linear_5400_73163" x1="28.2258" y1="8.625" x2="28.2258" y2="11.2252" gradientUnits="userSpaceOnUse">
<stop stop-color="#32469F"/>
<stop offset="1" stop-color="#5EA3E0"/>
</linearGradient>
<linearGradient id="paint9_linear_5400_73163" x1="11.0625" y1="9.2216" x2="23.5575" y2="9.2216" gradientUnits="userSpaceOnUse">
<stop stop-color="#27213B"/>
<stop offset="0.61" stop-color="#4A3F73"/>
<stop offset="1" stop-color="#28223C"/>
</linearGradient>
<linearGradient id="paint10_linear_5400_73163" x1="13.7617" y1="7.41619" x2="13.5167" y2="9.93182" gradientUnits="userSpaceOnUse">
<stop stop-color="#9490A1"/>
<stop offset="1" stop-color="#9490A1" stop-opacity="0"/>
</linearGradient>
<linearGradient id="paint11_linear_5400_73163" x1="14.8161" y1="8.18945" x2="14.8161" y2="11.7842" gradientUnits="userSpaceOnUse">
<stop stop-color="#FFF962"/>
<stop offset="1" stop-color="#FCBE43"/>
</linearGradient>
<linearGradient id="paint12_linear_5400_73163" x1="20.5139" y1="8.18945" x2="20.5139" y2="11.7842" gradientUnits="userSpaceOnUse">
<stop stop-color="#FFF962"/>
<stop offset="1" stop-color="#FCBE43"/>
</linearGradient>
<linearGradient id="paint13_linear_5400_73163" x1="8.47781" y1="17.002" x2="8.47781" y2="28.4717" gradientUnits="userSpaceOnUse">
<stop stop-color="#87B7FD"/>
<stop offset="1" stop-color="#325CA9"/>
</linearGradient>
<linearGradient id="paint14_linear_5400_73163" x1="26.3389" y1="17.002" x2="26.3389" y2="28.4717" gradientUnits="userSpaceOnUse">
<stop stop-color="#87B7FD"/>
<stop offset="1" stop-color="#325CA9"/>
</linearGradient>
<linearGradient id="paint15_linear_5400_73163" x1="14.1208" y1="22.0103" x2="21.2463" y2="22.0103" gradientUnits="userSpaceOnUse">
<stop stop-color="#C6AD40"/>
<stop offset="1" stop-color="#FFE45B"/>
</linearGradient>
</defs>
</svg>
