<svg width="70" height="70" viewBox="0 0 70 70" fill="none" xmlns="http://www.w3.org/2000/svg">
<rect width="69.1176" height="69.1176" transform="translate(0.589844)" fill="#1DA1F2"/>
<g clip-path="url(#clip0_5494_78591)">
<path d="M29.9705 45.6228C40.3456 45.6228 46.0194 37.0767 46.0194 29.6658C46.0194 29.4231 46.0145 29.1815 46.0034 28.9409C47.1074 28.1467 48.0602 27.1632 48.8171 26.0368C47.8064 26.4835 46.7188 26.7842 45.5779 26.9198C46.7425 26.2255 47.6365 25.1271 48.0583 23.8178C46.951 24.4709 45.7397 24.9313 44.4765 25.1791C43.4472 24.089 41.9818 23.4072 40.3592 23.4072C37.2442 23.4072 34.7182 25.9188 34.7182 29.0147C34.7182 29.4549 34.7678 29.8829 34.8646 30.2935C30.1765 30.059 26.0195 27.8273 23.2374 24.4339C22.7364 25.2898 22.4728 26.2625 22.4737 27.2527C22.4737 29.1985 23.4694 30.9162 24.9838 31.9211C24.088 31.8939 23.2119 31.6533 22.4292 31.2196C22.4283 31.2432 22.4283 31.2661 22.4283 31.2913C22.4283 34.0073 24.3726 36.275 26.9536 36.7889C26.4689 36.9201 25.9687 36.9865 25.4663 36.9862C25.1034 36.9862 24.7498 36.9507 24.4062 36.8851C25.1243 39.1134 27.2066 40.735 29.6754 40.7803C27.7448 42.2848 25.3129 43.181 22.6697 43.181C22.2201 43.1813 21.7708 43.1554 21.3242 43.1033C23.8206 44.6942 26.7848 45.6225 29.9707 45.6225" fill="white"/>
</g>
<defs>
<clipPath id="clip0_5494_78591">
<rect width="27.6471" height="27.6471" fill="white" transform="translate(21.3242 20.7354)"/>
</clipPath>
</defs>
</svg>
